<svg width="24" height="25" viewBox="0 0 24 25" fill="none" xmlns="http://www.w3.org/2000/svg">
<path fill-rule="evenodd" clip-rule="evenodd" d="M12 21.1837C16.9706 21.1837 21 17.1543 21 12.1837C21 7.21315 16.9706 3.18372 12 3.18372C7.02944 3.18372 3 7.21315 3 12.1837C3 17.1543 7.02944 21.1837 12 21.1837ZM12 22.1837C17.5228 22.1837 22 17.7066 22 12.1837C22 6.66087 17.5228 2.18372 12 2.18372C6.47715 2.18372 2 6.66087 2 12.1837C2 17.7066 6.47715 22.1837 12 22.1837ZM15.4429 15.9539C15.3648 16.032 15.2381 16.032 15.16 15.9539L12.1737 12.9675C12.0956 12.8894 11.9689 12.8894 11.8908 12.9675L8.83991 16.0185C8.7618 16.0966 8.63517 16.0966 8.55706 16.0185L8.1328 15.5942C8.05469 15.5161 8.05469 15.3895 8.1328 15.3114L11.1837 12.2604C11.2618 12.1823 11.2618 12.0557 11.1837 11.9776L8.26219 9.05609C8.18409 8.97799 8.18409 8.85136 8.26219 8.77325L8.68645 8.34898C8.76456 8.27088 8.89119 8.27088 8.9693 8.34898L11.8908 11.2705C11.9689 11.3486 12.0956 11.3486 12.1737 11.2705L14.9981 8.44597C15.0763 8.36786 15.2029 8.36786 15.281 8.44597L15.7053 8.87023C15.7834 8.94834 15.7834 9.07497 15.7053 9.15307L12.8808 11.9776C12.8027 12.0557 12.8027 12.1823 12.8808 12.2604L15.8671 15.2467C15.9452 15.3249 15.9452 15.4515 15.8671 15.5296L15.4429 15.9539Z" fill="#56565c"/>
</svg>
