<svg width="24" height="25" viewBox="0 0 24 25" fill="none" xmlns="http://www.w3.org/2000/svg">
<path d="M20.0597 4.18372C19.3597 3.48372 18.6597 3.18372 17.9597 3.18372C16.7597 3.18372 15.7597 4.18372 15.7597 4.18372L4.69306 15.2503C4.67111 15.2723 4.65456 15.2991 4.64475 15.3285L3.05968 20.0837C2.85968 20.6837 3.25968 21.1837 3.75968 21.1837C3.84886 21.1837 3.93804 21.1837 4.02722 21.1837C4.04872 21.1837 4.07007 21.1803 4.09047 21.1735L8.81489 19.5986C8.84434 19.5888 8.87111 19.5723 8.89306 19.5503L20.0597 8.38372C20.0597 8.38372 22.1597 6.28372 20.0597 4.18372ZM4.43304 19.9624C4.27762 20.0129 4.13051 19.8658 4.18102 19.7103L5.25881 16.3941C5.30497 16.2521 5.48484 16.2089 5.59044 16.3145L7.82892 18.553C7.93451 18.6586 7.89133 18.8384 7.74931 18.8846L4.43304 19.9624ZM6.19618 15.4251C6.12041 15.3466 6.1215 15.2219 6.19864 15.1448L15.0183 6.32514C15.0964 6.24703 15.223 6.24703 15.3011 6.32514L17.819 8.84307C17.8968 8.92087 17.8972 9.04691 17.8198 9.12513L9.0036 18.0382C8.92465 18.118 8.7955 18.1172 8.71752 18.0365L6.19618 15.4251ZM19.3597 7.68372L18.9011 8.1423C18.823 8.2204 18.6964 8.2204 18.6183 8.14229L16.1011 5.62514C16.023 5.54703 16.023 5.4204 16.1011 5.34229L16.5542 4.88915C16.5579 4.88553 16.5612 4.88242 16.5651 4.87915C16.6317 4.82379 17.3007 4.28372 18.0597 4.28372C18.5597 4.28372 18.9597 4.48372 19.3597 4.88372C20.6597 6.18372 19.6597 7.38372 19.3597 7.68372Z" fill="#56565c"/>
</svg>
