<svg width="14" height="19" viewBox="0 0 14 19" fill="none" xmlns="http://www.w3.org/2000/svg">
<path fill-rule="evenodd" clip-rule="evenodd" d="M12 1.18372C13.1 1.18372 14 2.08372 14 3.18372V3.98372C14 4.09417 13.9105 4.18372 13.8 4.18372H13.2C13.0895 4.18372 13 4.27326 13 4.38372V16.1837C13 17.2837 12.1 18.1837 11 18.1837H3C1.9 18.1837 1 17.2837 1 16.1837V4.38372C1 4.27326 0.910457 4.18372 0.8 4.18372H0.2C0.0895431 4.18372 0 4.09417 0 3.98372V3.18372C0 2.08372 0.9 1.18372 2 1.18372H4.17639C4.25215 1.18372 4.32048 1.14033 4.35969 1.07551C4.68596 0.536105 5.34298 0.183716 6 0.183716H8C8.65702 0.183716 9.31404 0.536105 9.64031 1.07551C9.67952 1.14033 9.74785 1.18372 9.82361 1.18372H12ZM11 17.1837C11.6 17.1837 12 16.6837 12 16.1837V4.38372C12 4.27326 11.9105 4.18372 11.8 4.18372H2.2C2.08954 4.18372 2 4.27326 2 4.38372V16.1837C2 16.7837 2.4 17.1837 3 17.1837H11ZM1.01565 2.98443C0.99793 3.09346 1.08954 3.18372 1.2 3.18372H12.8C12.9105 3.18372 13.0021 3.09346 12.9843 2.98443C12.9051 2.49678 12.5308 2.18372 12 2.18372H9.2C9.08954 2.18372 9.00207 2.09345 8.98435 1.98443C8.90509 1.49678 8.53081 1.18372 8 1.18372H6C5.46919 1.18372 5.09491 1.49678 5.01565 1.98443C4.99793 2.09346 4.91046 2.18372 4.8 2.18372H2C1.46919 2.18372 1.09491 2.49678 1.01565 2.98443ZM4.8 7.1708H4.2C4.08954 7.1708 4 7.26035 4 7.3708V13.9708C4 14.0813 4.08954 14.1708 4.2 14.1708H4.8C4.91046 14.1708 5 14.0813 5 13.9708V7.3708C5 7.26035 4.91046 7.1708 4.8 7.1708ZM6.7 7.1708H7.3C7.41046 7.1708 7.5 7.26035 7.5 7.3708V13.9708C7.5 14.0813 7.41046 14.1708 7.3 14.1708H6.7C6.58954 14.1708 6.5 14.0813 6.5 13.9708V7.3708C6.5 7.26035 6.58954 7.1708 6.7 7.1708ZM9.2 7.1708H9.8C9.91046 7.1708 10 7.26035 10 7.3708V13.9708C10 14.0813 9.91046 14.1708 9.8 14.1708H9.2C9.08954 14.1708 9 14.0813 9 13.9708V7.3708C9 7.26035 9.08954 7.1708 9.2 7.1708Z" fill="black"/>
</svg>
