<svg width="18" height="19" viewBox="0 0 18 19" fill="none" xmlns="http://www.w3.org/2000/svg">
<path d="M17.0597 1.18372C16.3597 0.483716 15.6597 0.183716 14.9597 0.183716C13.7597 0.183716 12.7597 1.18372 12.7597 1.18372L1.69306 12.2503C1.67111 12.2723 1.65456 12.2991 1.64475 12.3285L0.0596761 17.0837C-0.140324 17.6837 0.259676 18.1837 0.759676 18.1837C0.848858 18.1837 0.938039 18.1837 1.02722 18.1837C1.04872 18.1837 1.07007 18.1803 1.09047 18.1735L5.81489 16.5986C5.84434 16.5888 5.87111 16.5723 5.89306 16.5503L17.0597 5.38372C17.0597 5.38372 19.1597 3.28372 17.0597 1.18372ZM1.43304 16.9624C1.27762 17.0129 1.13051 16.8658 1.18102 16.7103L2.25881 13.3941C2.30497 13.2521 2.48484 13.2089 2.59044 13.3145L4.82892 15.553C4.93451 15.6586 4.89133 15.8384 4.74931 15.8846L1.43304 16.9624ZM3.19618 12.4251C3.12041 12.3466 3.1215 12.2219 3.19864 12.1448L12.0183 3.32514C12.0964 3.24703 12.223 3.24703 12.3011 3.32514L14.819 5.84307C14.8968 5.92087 14.8972 6.04691 14.8198 6.12513L6.0036 15.0382C5.92465 15.118 5.7955 15.1172 5.71752 15.0365L3.19618 12.4251ZM16.3597 4.68372L15.9011 5.1423C15.823 5.2204 15.6964 5.2204 15.6183 5.14229L13.1011 2.62514C13.023 2.54703 13.023 2.4204 13.1011 2.34229L13.5542 1.88915C13.5579 1.88553 13.5612 1.88242 13.5651 1.87915C13.6317 1.82379 14.3007 1.28372 15.0597 1.28372C15.5597 1.28372 15.9597 1.48372 16.3597 1.88372C17.6597 3.18372 16.6597 4.38372 16.3597 4.68372Z" fill="black"/>
</svg>
