<svg width="18" height="16" viewBox="0 0 18 16" fill="none" xmlns="http://www.w3.org/2000/svg">
<path fill-rule="evenodd" clip-rule="evenodd" d="M0 2.35294C0 1.05345 1.11408 0 2.48836 0H13.2372C13.3476 0 13.4372 0.0895429 13.4372 0.2V0.741176C13.4372 0.851633 13.3476 0.941176 13.2372 0.941176H2.48836C1.66379 0.941176 0.995345 1.57325 0.995345 2.35294V13.6471C0.995345 14.4268 1.66379 15.0588 2.48836 15.0588H13.2372C13.3476 15.0588 13.4372 15.1484 13.4372 15.2588V15.8C13.4372 15.9105 13.3476 16 13.2372 16H2.48836C1.11408 16 0 14.9466 0 13.6471V2.35294ZM16.3831 7.52941H2.68828C2.57782 7.52941 2.48828 7.61895 2.48828 7.72941V8.27059C2.48828 8.38105 2.57782 8.47059 2.68828 8.47059H16.3831L13.185 12.2506C13.1109 12.3382 13.1255 12.4701 13.217 12.5393L13.6748 12.8856C13.7595 12.9497 13.8795 12.9363 13.9481 12.8553L17.9466 8.12915C18.0097 8.05458 18.0097 7.94536 17.9466 7.87079L13.9481 3.14469C13.8795 3.0636 13.7595 3.05028 13.6748 3.11436L13.217 3.46063C13.1255 3.52986 13.1109 3.66172 13.185 3.74932L16.3831 7.52941Z" fill="white"/>
</svg>
