<svg width="18" height="19" viewBox="0 0 18 19" fill="none" xmlns="http://www.w3.org/2000/svg">
<path fill-rule="evenodd" clip-rule="evenodd" d="M12.0555 12.0963C11.887 12.139 11.7329 12.2312 11.6107 12.3624L10.9155 13.342C10.8605 13.4195 10.7613 13.4438 10.6807 13.3985C8.12906 11.9642 6.04701 9.73196 4.71298 6.99964C4.67959 6.93126 4.68651 6.84843 4.73013 6.78699L5.44206 5.78415C5.44742 5.77659 5.4533 5.76947 5.45952 5.76271C5.57779 5.63404 5.6615 5.47363 5.70175 5.29829C5.74169 5.12427 5.68791 4.77708 5.68431 4.75436L5.68394 4.75196L5.15129 1.18831L5.14987 1.18004C5.14053 1.13306 5.04729 0.679791 4.88867 0.491854C4.8803 0.481937 4.87077 0.473769 4.86024 0.466579C4.78283 0.41372 4.43409 0.184186 4.2146 0.183594H0.936049C0.687986 0.184264 0.450262 0.289878 0.274855 0.477345C0.0994472 0.664812 0.000626764 0.918879 0 1.184C0 5.69257 1.67581 10.0165 4.65878 13.2045C7.64174 16.3926 11.6875 18.1836 15.9061 18.1836C16.1541 18.1829 16.3918 18.0773 16.5673 17.8898C16.7427 17.7024 16.8415 17.4483 16.8421 17.1832V13.6919C16.8415 13.4268 16.7427 13.1727 16.5673 12.9853C16.4008 12.8074 15.9548 12.7026 15.9097 12.6924L15.902 12.6908L12.567 12.121L12.5628 12.1203C12.535 12.1149 12.2166 12.0555 12.0555 12.0963ZM11.9172 9.37331C12.0434 9.49889 12.2584 9.40957 12.2584 9.23159V7.05418C12.2584 6.94373 12.3479 6.85418 12.4584 6.85418H17.8C17.9105 6.85418 18 6.76464 18 6.65418V3.24242C18 3.13196 17.9105 3.04242 17.8 3.04242H12.4584C12.3479 3.04242 12.2584 2.95287 12.2584 2.84242V0.665011C12.2584 0.487032 12.0434 0.397707 11.9172 0.523294L7.616 4.80658C7.5375 4.88475 7.5375 5.01185 7.616 5.09002L11.9172 9.37331Z" fill="black"/>
</svg>
