<svg width="18" height="19" viewBox="0 0 18 19" fill="none" xmlns="http://www.w3.org/2000/svg">
<path fill-rule="evenodd" clip-rule="evenodd" d="M9 0.20874C5.96243 0.20874 3.5 2.67117 3.5 5.70874V6.70874V7.23582C3.5 7.34627 3.41046 7.43582 3.3 7.43582H2C0.895431 7.43582 0 8.33125 0 9.43582V16.1587C0 17.2633 0.89543 18.1587 2 18.1587H16C17.1046 18.1587 18 17.2633 18 16.1587V9.43582C18 8.33125 17.1046 7.43582 16 7.43582H14.7C14.5895 7.43582 14.5 7.34627 14.5 7.23582V6.70874V5.70874C14.5 2.67117 12.0376 0.20874 9 0.20874ZM13.3 7.43582C13.4105 7.43582 13.5 7.34627 13.5 7.23582V6.70874V5.70874C13.5 3.22346 11.4853 1.20874 9 1.20874C6.51472 1.20874 4.5 3.22346 4.5 5.70874V6.70874V7.23582C4.5 7.34627 4.58954 7.43582 4.7 7.43582H13.3ZM3.5 8.43581H2C1.44772 8.43581 1 8.88353 1 9.43582V16.1587C1 16.711 1.44772 17.1587 2 17.1587H16C16.5523 17.1587 17 16.711 17 16.1587V9.43582C17 8.88353 16.5523 8.43581 16 8.43581H14.5H13.5H4.5H3.5ZM8 10.6358C8 10.5254 7.91046 10.4358 7.8 10.4358H7.2C7.08954 10.4358 7 10.5254 7 10.6358V12.3797C7 12.385 6.99979 12.3903 6.99937 12.3955C6.99315 12.4736 6.94113 12.5411 6.86906 12.5746C6.80491 12.6044 6.74322 12.6385 6.68437 12.6767C6.27246 12.9441 6 13.4081 6 13.9358C6 13.9391 6.00001 13.9423 6.00003 13.9455C6.00525 14.7695 6.67481 15.4358 7.5 15.4358C8.32843 15.4358 9 14.7642 9 13.9358C9 13.3328 8.64413 12.8128 8.13094 12.5746C8.05406 12.5389 8 12.4645 8 12.3797V10.6358Z" fill="white"/>
</svg>
