<svg width="20" height="20" viewBox="0 0 20 20" fill="none" xmlns="http://www.w3.org/2000/svg">
<path fill-rule="evenodd" clip-rule="evenodd" d="M13.3119 7.48644C13.3119 10.7993 10.6263 13.4849 7.3134 13.4849C4.00054 13.4849 1.31494 10.7993 1.31494 7.48644C1.31494 4.17358 4.00054 1.48798 7.3134 1.48798C10.6263 1.48798 13.3119 4.17358 13.3119 7.48644ZM12.0158 12.9175C11.9417 12.8434 11.8232 12.8393 11.7421 12.9056C10.5357 13.8927 8.99373 14.4849 7.3134 14.4849C3.44826 14.4849 0.314941 11.3516 0.314941 7.48644C0.314941 3.62129 3.44826 0.487976 7.3134 0.487976C11.1785 0.487976 14.3119 3.62129 14.3119 7.48644C14.3119 9.17744 13.7121 10.7284 12.7137 11.9381C12.6468 12.0192 12.6507 12.1382 12.725 12.2125L19.6264 19.1138C19.7045 19.1919 19.7045 19.3186 19.6264 19.3967L19.2021 19.8209C19.124 19.899 18.9974 19.899 18.9193 19.8209L12.0158 12.9175Z" fill="#56565c"/>
</svg>
