<svg width="24" height="24" viewBox="0 0 24 24" fill="none" xmlns="http://www.w3.org/2000/svg">
<path fill-rule="evenodd" clip-rule="evenodd" d="M4 6H20C20.0611 6 20.0839 6.07295 20.0384 6.11367L14.3505 11.2022L13.6033 11.8707L12.9787 12.4294C12.4107 12.9376 11.5519 12.939 10.9822 12.4328L10.3061 11.8321L10.305 11.831L10.2998 11.8264L9.55029 11.1605L3.94392 6.17892C3.87169 6.11475 3.90339 6 4 6ZM3.2576 6.90683C3.15687 6.81732 3 6.86525 3 7V17C3 17.0618 3.00561 17.1223 3.01634 17.181C3.04078 17.3147 3.2024 17.3443 3.29974 17.2495L8.67816 12.0101C8.76134 11.929 8.75825 11.7944 8.67144 11.7173L3.2576 6.90683ZM3.98953 17.9736C3.97956 17.9833 3.98609 18 4 18H19.4438C19.6236 18 19.7121 17.7813 19.5829 17.6563L14.4575 12.6972C14.3822 12.6243 14.2633 12.622 14.1851 12.6919L13.6454 13.1747C12.6987 14.0216 11.2675 14.024 10.318 13.1803L9.72071 12.6496C9.64232 12.58 9.52343 12.5827 9.44831 12.6559L3.98953 17.9736ZM20.6807 17.327C20.7739 17.4172 20.9281 17.3952 20.963 17.2703C20.9871 17.1843 21 17.0937 21 17V7C21 6.97881 20.9993 6.95777 20.998 6.93691C20.9893 6.79629 20.824 6.75268 20.719 6.84661L15.2312 11.756C15.1447 11.8335 15.142 11.9681 15.2255 12.0488L20.6807 17.327ZM2 7C2 5.89543 2.89543 5 4 5H20C21.1046 5 22 5.89543 22 7V17C22 18.1046 21.1046 19 20 19H4C2.89543 19 2 18.1046 2 17V7Z" fill="black"/>
</svg>
