<svg width="18" height="19" viewBox="0 0 18 19" fill="none" xmlns="http://www.w3.org/2000/svg">
<path fill-rule="evenodd" clip-rule="evenodd" d="M12.1264 12.0963C11.9569 12.139 11.8019 12.2312 11.679 12.3624L10.9797 13.342C10.9244 13.4195 10.8246 13.4438 10.7435 13.3985C8.17688 11.9642 6.08258 9.73196 4.7407 6.99964C4.70712 6.93126 4.71408 6.84843 4.75795 6.78699L5.47407 5.78415C5.47947 5.77659 5.48538 5.76948 5.49164 5.76271C5.6106 5.63404 5.69481 5.47363 5.73529 5.29829C5.77546 5.12427 5.72136 4.77708 5.71775 4.75436L5.71738 4.75196L5.18159 1.18831L5.18016 1.18004C5.17077 1.13306 5.07698 0.679791 4.91743 0.491854C4.90901 0.481937 4.89942 0.473769 4.88883 0.466579C4.81096 0.41372 4.46018 0.184186 4.23939 0.183594H0.941556C0.692033 0.184264 0.452911 0.289878 0.276472 0.477345C0.100032 0.664812 0.000630451 0.918879 0 1.184C0 5.69257 1.68567 10.0165 4.68618 13.2045C7.68669 16.3926 11.7563 18.1836 15.9996 18.1836C16.2491 18.1829 16.4883 18.0773 16.6647 17.8898C16.8411 17.7024 16.9405 17.4483 16.9412 17.1832V13.6919C16.9405 13.4268 16.8411 13.1727 16.6647 12.9853C16.4973 12.8074 16.0486 12.7026 16.0033 12.6924L15.9956 12.6908L12.6409 12.121L12.6367 12.1203C12.6087 12.1149 12.2885 12.0555 12.1264 12.0963ZM13.5279 9.3757C13.4016 9.50072 13.1872 9.41127 13.1872 9.23357V7.05418C13.1872 6.94373 13.0976 6.85418 12.9872 6.85418H7.61176C7.50131 6.85418 7.41176 6.76464 7.41176 6.65418V3.24242C7.41176 3.13196 7.50131 3.04242 7.61176 3.04242H12.9872C13.0976 3.04242 13.1872 2.95287 13.1872 2.84242V0.663026C13.1872 0.485329 13.4016 0.395878 13.5279 0.520896L17.8564 4.80617C17.9355 4.88443 17.9355 5.01217 17.8564 5.09043L13.5279 9.3757Z" fill="black"/>
</svg>
