<svg width="31" height="30" viewBox="0 0 31 30" fill="none" xmlns="http://www.w3.org/2000/svg">
<path fill-rule="evenodd" clip-rule="evenodd" d="M13.2992 6.01244C13.2039 5.90921 13.0424 5.90466 12.9415 6.00236L11.2901 7.6377C11.1914 7.73331 11.1884 7.89069 11.2833 7.99004L17.1985 14.3019C17.2889 14.3965 17.437 14.4054 17.5381 14.3222L27.8222 6.01244C27.9272 5.92595 27.9438 5.77132 27.8595 5.66451L26.1562 3.7074C26.0704 3.59862 25.9124 3.58047 25.8041 3.66693L17.5382 10.2652C17.4357 10.3471 17.2874 10.3358 17.1985 10.2394L13.2992 6.01244ZM19.1325 18.8092C18.9081 18.8624 18.7031 18.9771 18.5405 19.1405L17.6152 20.36C17.5419 20.4566 17.4099 20.4868 17.3026 20.4304C13.9065 18.6447 11.1353 15.8658 9.35975 12.4643C9.31531 12.3792 9.32452 12.2761 9.38258 12.1996L10.3301 10.9511C10.3373 10.9417 10.3451 10.9328 10.3534 10.9244C10.5108 10.7642 10.6222 10.5645 10.6758 10.3463C10.7289 10.1296 10.6574 9.6974 10.6526 9.66911L10.6521 9.66612L9.94313 5.22967L9.94124 5.21938C9.92882 5.16089 9.80471 4.5966 9.59359 4.36264C9.58245 4.35029 9.56976 4.34012 9.55575 4.33117C9.45272 4.26536 8.98856 3.97961 8.69642 3.97888H4.33277C4.0026 3.97971 3.6862 4.11119 3.45274 4.34457C3.21928 4.57795 3.08775 4.89425 3.08691 5.2243C3.08691 10.8371 5.31737 16.22 9.28761 20.1889C13.2578 24.1577 18.6426 26.3874 24.2574 26.3874C24.5876 26.3866 24.904 26.2551 25.1374 26.0217C25.3709 25.7884 25.5024 25.4721 25.5033 25.142V20.7957C25.5024 20.4656 25.3709 20.1493 25.1374 19.9159C24.9159 19.6945 24.3223 19.564 24.2623 19.5513L24.2521 19.5494L19.8132 18.84L19.8076 18.8391C19.7706 18.8324 19.3469 18.7584 19.1325 18.8092Z" fill="#0B2C36"/>
</svg>
