<svg width="30" height="30" viewBox="0 0 30 30" fill="none" xmlns="http://www.w3.org/2000/svg">
<path fill-rule="evenodd" clip-rule="evenodd" d="M18.9081 18.6409C18.6961 18.6943 18.5024 18.8095 18.3488 18.9735L17.4747 20.198C17.4055 20.2949 17.2807 20.3253 17.1794 20.2687C13.9711 18.4757 11.3532 15.6855 9.67588 12.2701C9.6339 12.1846 9.64259 12.081 9.69744 12.0042L10.5926 10.7507C10.5993 10.7412 10.6067 10.7324 10.6145 10.7239C10.7632 10.5631 10.8685 10.3625 10.9191 10.1434C10.9693 9.92584 10.9017 9.49186 10.8972 9.46346L10.8967 9.46046L10.227 5.0059L10.2252 4.99556C10.2135 4.93684 10.0962 4.37025 9.89678 4.13533C9.88626 4.12293 9.87427 4.11272 9.86103 4.10373C9.7637 4.03766 9.32522 3.75074 9.04923 3.75H4.92694C4.61504 3.75084 4.31614 3.88286 4.09559 4.11719C3.87504 4.35152 3.75079 4.66911 3.75 5.0005C3.75 10.6362 5.85709 16.0411 9.60773 20.0262C13.3584 24.0112 18.4453 26.25 23.7495 26.25C24.0614 26.2492 24.3603 26.1171 24.5809 25.8828C24.8014 25.6485 24.9257 25.3309 24.9265 24.9995V20.6354C24.9257 20.304 24.8014 19.9864 24.5809 19.7521C24.3716 19.5297 23.8108 19.3987 23.7542 19.3859L23.7445 19.3841L19.5511 18.6718L19.5459 18.6708C19.5109 18.6642 19.1106 18.5899 18.9081 18.6409ZM20.5747 15.3245C20.4484 15.4495 20.234 15.36 20.234 15.1823V12.2882C20.234 12.1778 20.1444 12.0882 20.034 12.0882H13.2147C13.1042 12.0882 13.0147 11.9987 13.0147 11.8882V7.52353C13.0147 7.41307 13.1042 7.32353 13.2147 7.32353H20.034C20.1444 7.32353 20.234 7.23399 20.234 7.12353V4.22943C20.234 4.05174 20.4484 3.96228 20.5747 4.0873L26.1064 9.56375C26.1855 9.64202 26.1855 9.76975 26.1064 9.84801L20.5747 15.3245Z" fill="white"/>
</svg>
