<svg width="30" height="30" viewBox="0 0 30 30" fill="none" xmlns="http://www.w3.org/2000/svg">
<path fill-rule="evenodd" clip-rule="evenodd" d="M23.75 5C23.75 3.61929 22.6307 2.5 21.25 2.5L18.7134 2.5C18.6075 2.5 18.5138 2.56717 18.4737 2.66528C17.9152 4.03479 16.5703 5 15 5C13.4297 5 12.0848 4.03479 11.5263 2.66528C11.4862 2.56717 11.3925 2.5 11.2866 2.5L8.75 2.5C7.36929 2.5 6.25 3.61929 6.25 5L6.25 9.75C6.25 9.88807 6.36193 10 6.5 10L8.5 10C8.63807 10 8.75 10.1119 8.75 10.25L8.75 11C8.75 11.1381 8.63807 11.25 8.5 11.25L6.5 11.25C6.36193 11.25 6.25 11.3619 6.25 11.5L6.25 25C6.25 26.3807 7.36929 27.5 8.75 27.5L11.2866 27.5C11.3925 27.5 11.4862 27.4328 11.5263 27.3347C12.0848 25.9652 13.4297 25 15 25C16.5703 25 17.9152 25.9652 18.4737 27.3347C18.5138 27.4328 18.6075 27.5 18.7134 27.5L21.25 27.5C22.6307 27.5 23.75 26.3807 23.75 25L23.75 11.5C23.75 11.3619 23.6381 11.25 23.5 11.25L21.5 11.25C21.3619 11.25 21.25 11.1381 21.25 11L21.25 10.25C21.25 10.1119 21.3619 10 21.5 10L23.5 10C23.6381 10 23.75 9.88807 23.75 9.75L23.75 5ZM17.5 10.25C17.5 10.1119 17.6119 10 17.75 10L19.75 10C19.8881 10 20 10.1119 20 10.25L20 11C20 11.1381 19.8881 11.25 19.75 11.25L17.75 11.25C17.6119 11.25 17.5 11.1381 17.5 11L17.5 10.25ZM16 11.25C16.1381 11.25 16.25 11.1381 16.25 11L16.25 10.25C16.25 10.1119 16.1381 10 16 10L14 10C13.8619 10 13.75 10.1119 13.75 10.25L13.75 11C13.75 11.1381 13.8619 11.25 14 11.25L16 11.25ZM10 10.25C10 10.1119 10.1119 10 10.25 10L12.25 10C12.3881 10 12.5 10.1119 12.5 10.25L12.5 11C12.5 11.1381 12.3881 11.25 12.25 11.25L10.25 11.25C10.1119 11.25 10 11.1381 10 11L10 10.25Z" fill="white"/>
</svg>
