<svg width="30" height="30" viewBox="0 0 30 30" fill="none" xmlns="http://www.w3.org/2000/svg">
<path fill-rule="evenodd" clip-rule="evenodd" d="M18.8194 18.6409C18.6087 18.6943 18.4162 18.8095 18.2634 18.9735L17.3944 20.198C17.3256 20.2949 17.2016 20.3253 17.1009 20.2687C13.9113 18.4757 11.3088 15.6855 9.64122 12.2701C9.59949 12.1846 9.60814 12.081 9.66266 12.0042L10.5526 10.7507C10.5593 10.7412 10.5666 10.7324 10.5744 10.7239C10.7222 10.5631 10.8269 10.3625 10.8772 10.1434C10.9271 9.92584 10.8599 9.49186 10.8554 9.46346L10.8549 9.46046L10.1891 5.0059L10.1873 4.99556C10.1757 4.93684 10.0591 4.37025 9.86084 4.13533C9.85037 4.12293 9.83846 4.11272 9.8253 4.10373C9.72853 4.03766 9.29261 3.75074 9.01825 3.75H4.92006C4.60998 3.75084 4.31283 3.88286 4.09357 4.11719C3.87431 4.35152 3.75078 4.66911 3.75 5.0005C3.75 10.6362 5.84477 16.0411 9.57347 20.0262C13.3022 24.0112 18.3594 26.25 23.6326 26.25C23.9426 26.2492 24.2398 26.1171 24.4591 25.8828C24.6783 25.6485 24.8018 25.3309 24.8026 24.9995V20.6354C24.8018 20.304 24.6783 19.9864 24.4591 19.7521C24.251 19.5297 23.6935 19.3987 23.6372 19.3859L23.6275 19.3841L19.4587 18.6718L19.4535 18.6708C19.4187 18.6642 19.0208 18.5899 18.8194 18.6409ZM18.7318 15.3221C18.858 15.4477 19.073 15.3583 19.073 15.1803V12.2882C19.073 12.1778 19.1625 12.0882 19.273 12.0882H26.05C26.1605 12.0882 26.25 11.9987 26.25 11.8882V7.52353C26.25 7.41307 26.1605 7.32353 26.05 7.32353H19.273C19.1625 7.32353 19.073 7.23399 19.073 7.12353V4.23142C19.073 4.05344 18.858 3.96411 18.7318 4.0897L13.2344 9.56417C13.1559 9.64234 13.1559 9.76943 13.2344 9.8476L18.7318 15.3221Z" fill="#0B2C36"/>
</svg>
