<svg width="30" height="30" viewBox="0 0 30 30" fill="#0B2C36" xmlns="http://www.w3.org/2000/svg">
<path fill-rule="evenodd" clip-rule="evenodd" d="M21.3944 24.8495C21.2842 24.9337 21.1268 24.9087 21.0456 24.7963L19.5188 22.6841C19.4383 22.5727 19.463 22.4174 19.5717 22.3332C20.6538 21.4952 21.5375 20.4244 22.1576 19.1979C22.8152 17.8972 23.1575 16.4583 23.1567 14.999C23.1558 13.5396 22.8118 12.1011 22.1526 10.8012C21.5311 9.57545 20.6461 8.50567 19.5631 7.66898C19.4543 7.58493 19.4293 7.42969 19.5097 7.31817L21.034 5.20414C21.1151 5.09167 21.2724 5.06649 21.3827 5.15054C22.8595 6.276 24.065 7.7238 24.908 9.38627C25.789 11.1238 26.2488 13.0465 26.25 14.9971C26.2511 16.9477 25.7935 18.871 24.9146 20.6095C24.0736 22.273 22.8698 23.7223 21.3944 24.8495ZM18.8889 21.5906C18.7783 21.6742 18.6213 21.6468 18.5417 21.5333L17.3224 19.7928C17.2435 19.6802 17.2707 19.5255 17.3792 19.441C18.0089 18.9506 18.5277 18.3295 18.8996 17.6188C19.3101 16.8345 19.5301 15.9634 19.5415 15.077C19.5529 14.1905 19.3554 13.314 18.9651 12.5193C18.6115 11.7991 18.1089 11.1647 17.492 10.6581C17.3857 10.5708 17.3625 10.4155 17.4443 10.305L18.7079 8.59689C18.7903 8.48541 18.948 8.46206 19.0564 8.54857C20.0029 9.30419 20.7724 10.262 21.3086 11.3539C21.8818 12.5213 22.1719 13.8089 22.1552 15.111C22.1385 16.4131 21.8153 17.6927 21.2123 18.8448C20.6483 19.9224 19.8545 20.8598 18.8889 21.5906ZM16.5353 18.2137C16.9799 17.8534 17.3456 17.4028 17.6077 16.8904C17.9082 16.3029 18.0639 15.6514 18.0617 14.9907C18.0596 14.33 17.8995 13.6796 17.5952 13.0942C17.3296 12.5835 16.961 12.1354 16.514 11.7781C16.4057 11.6915 16.2485 11.7199 16.1694 11.8338L15.1417 13.3137C15.0633 13.4266 15.0923 13.5805 15.1928 13.6743C15.3431 13.8144 15.4689 13.9798 15.5645 14.1636C15.6984 14.4212 15.7689 14.7076 15.7699 14.9984C15.7708 15.2892 15.7023 15.576 15.57 15.8346C15.4757 16.019 15.3509 16.1852 15.2016 16.3264C15.1017 16.4208 15.0737 16.5749 15.1529 16.6873L16.1903 18.1603C16.2702 18.2737 16.4276 18.301 16.5353 18.2137ZM10.6269 19.8796C10.4569 19.7809 10.2609 19.7288 10.0612 19.7292L8.74716 19.8989C8.64314 19.9123 8.54369 19.8536 8.51253 19.7592C7.52584 16.7717 7.5306 13.5718 8.52677 10.587C8.5517 10.5123 8.62052 10.4582 8.70296 10.4476L10.0484 10.2741C10.0585 10.2728 10.0687 10.2722 10.079 10.2721C10.2736 10.2705 10.4642 10.2196 10.6307 10.1246C10.796 10.0304 11.017 9.73991 11.0314 9.72084L11.0329 9.71884L13.3166 6.75229L13.3218 6.74527C13.35 6.70438 13.6197 6.30749 13.6337 6.05088C13.6344 6.03734 13.6329 6.02416 13.6298 6.01092C13.607 5.91358 13.4977 5.48123 13.3191 5.31237L10.6457 2.79654C10.4429 2.60666 10.1685 2.50005 9.88244 2.5C9.59642 2.49995 9.32205 2.60648 9.11933 2.79629C5.68053 6.03232 3.74911 10.4218 3.74996 14.999C3.75081 19.5762 5.68385 23.9663 9.12384 27.2035C9.32663 27.3933 9.60104 27.4999 9.88706 27.5C10.1731 27.5 10.4474 27.3935 10.6502 27.2037L13.313 24.6979C13.5147 24.5071 13.6279 24.2489 13.6279 23.9797C13.6278 23.7243 13.3441 23.3069 13.3151 23.2649L13.31 23.2579L11.0251 20.2897L11.0223 20.286C11.0036 20.2608 10.7894 19.9739 10.6269 19.8796Z" fill="#0B2C36"/>
</svg>
