<svg width="16" height="21" viewBox="0 0 16 21" fill="none" xmlns="http://www.w3.org/2000/svg">
<path fill-rule="evenodd" clip-rule="evenodd" d="M4.87385 0.183594H4.62769C4.51894 0.183594 4.43077 0.275433 4.43077 0.388722V2.99309C4.43077 3.11743 4.37295 3.2347 4.27432 3.3104L0.0801085 6.52964C0.0297357 6.5683 0 6.6296 0 6.69478V19.9785C0 20.0918 0.0881655 20.1836 0.196923 20.1836H15.8031C15.9118 20.1836 16 20.0918 16 19.9785V11.4144C16 11.3011 15.9118 11.2092 15.8031 11.2092H10.5354C10.4266 11.2092 10.3385 11.1174 10.3385 11.0041V6.69478C10.3385 6.6296 10.3087 6.5683 10.2584 6.52964L6.06414 3.3104C5.96551 3.2347 5.90769 3.11743 5.90769 2.99309V0.388722C5.90769 0.275433 5.81953 0.183594 5.71077 0.183594H5.46462H4.87385ZM2.41231 9.92718C2.30355 9.92718 2.21538 10.019 2.21538 10.1323V12.2862C2.21538 12.3994 2.30355 12.4913 2.41231 12.4913H3.49538C3.60414 12.4913 3.69231 12.3994 3.69231 12.2862V10.1323C3.69231 10.019 3.60414 9.92718 3.49538 9.92718H2.41231ZM6.35077 9.92718C6.24201 9.92718 6.15385 10.019 6.15385 10.1323V12.2862C6.15385 12.3994 6.24201 12.4913 6.35077 12.4913H7.43385C7.5426 12.4913 7.63077 12.3994 7.63077 12.2862V10.1323C7.63077 10.019 7.5426 9.92718 7.43385 9.92718H6.35077ZM2.41231 17.6195C2.30355 17.6195 2.21538 17.5277 2.21538 17.4144V15.2605C2.21538 15.1472 2.30355 15.0554 2.41231 15.0554H3.49538C3.60414 15.0554 3.69231 15.1472 3.69231 15.2605V17.4144C3.69231 17.5277 3.60414 17.6195 3.49538 17.6195H2.41231ZM6.35077 15.0554C6.24201 15.0554 6.15385 15.1472 6.15385 15.2605V17.4144C6.15385 17.5277 6.24201 17.6195 6.35077 17.6195H7.43385C7.5426 17.6195 7.63077 17.5277 7.63077 17.4144V15.2605C7.63077 15.1472 7.5426 15.0554 7.43385 15.0554H6.35077ZM11.52 17.6195C11.4112 17.6195 11.3231 17.5277 11.3231 17.4144V15.2605C11.3231 15.1472 11.4112 15.0554 11.52 15.0554H12.1108C12.2195 15.0554 12.3077 15.1472 12.3077 15.2605V17.4144C12.3077 17.5277 12.2195 17.6195 12.1108 17.6195H11.52ZM13.4892 15.0554C13.3805 15.0554 13.2923 15.1472 13.2923 15.2605V17.4144C13.2923 17.5277 13.3805 17.6195 13.4892 17.6195H14.08C14.1888 17.6195 14.2769 17.5277 14.2769 17.4144V15.2605C14.2769 15.1472 14.1888 15.0554 14.08 15.0554H13.4892Z" fill="#56DB8D"/>
</svg>
