<svg width="18" height="18" viewBox="0 0 18 18" fill="none" xmlns="http://www.w3.org/2000/svg">
<path fill-rule="evenodd" clip-rule="evenodd" d="M12.375 4.5C12.375 6.36396 10.864 7.875 9 7.875C7.13604 7.875 5.625 6.36396 5.625 4.5C5.625 2.63604 7.13604 1.125 9 1.125C10.864 1.125 12.375 2.63604 12.375 4.5ZM13.5 4.5C13.5 6.98528 11.4853 9 9 9C6.51472 9 4.5 6.98528 4.5 4.5C4.5 2.01472 6.51472 0 9 0C11.4853 0 13.5 2.01472 13.5 4.5ZM7.3125 11.8125H10.6875C12.1303 11.8125 13.7484 12.3431 14.9963 13.1542C16.3067 14.006 16.875 14.9305 16.875 15.5625V16.65C16.875 16.7743 16.7743 16.875 16.65 16.875H1.35C1.22574 16.875 1.125 16.7743 1.125 16.65V15.5625C1.125 14.9305 1.6933 14.006 3.00374 13.1542C4.25163 12.3431 5.86974 11.8125 7.3125 11.8125ZM0 15.5625C0 13.125 3.9375 10.6875 7.3125 10.6875H10.6875C14.0625 10.6875 18 13.125 18 15.5625V17.775C18 17.8993 17.8993 18 17.775 18H0.225C0.100736 18 0 17.8993 0 17.775V15.5625Z" fill="white"/>
</svg>
