<svg width="24" height="25" viewBox="0 0 24 25" fill="none" xmlns="http://www.w3.org/2000/svg">
<path fill-rule="evenodd" clip-rule="evenodd" d="M15.3962 15.3495C15.5263 15.2188 15.6903 15.127 15.8698 15.0845C16.0414 15.0438 16.3803 15.1031 16.41 15.1084L16.4144 15.1091L19.9655 15.6766L19.9737 15.6781C20.0217 15.6883 20.4965 15.7927 20.6738 15.9699C20.8606 16.1566 20.9658 16.4096 20.9665 16.6737V20.1507C20.9658 20.4148 20.8606 20.6678 20.6738 20.8545C20.487 21.0412 20.2339 21.1464 19.9698 21.1471C16.5796 21.1471 13.2943 20.131 10.5211 18.2675C10.4176 18.1979 10.4044 18.0513 10.4926 17.9631L12.8316 15.6241C12.8995 15.5562 13.0059 15.5462 13.0859 15.5993C13.511 15.8813 13.9515 16.1425 14.4059 16.3814C14.4917 16.4265 14.5974 16.4024 14.656 16.3251L15.3962 15.3495ZM10.212 12.7977C10.1302 12.8795 9.99599 12.8751 9.92109 12.7868C9.20057 11.9374 8.57255 11.0065 8.05164 10.0086C8.01609 9.94046 8.02345 9.85796 8.0699 9.79677L8.82794 8.79801C8.83366 8.79048 8.83992 8.78339 8.84654 8.77666C8.97247 8.64851 9.0616 8.48875 9.10445 8.31412C9.14698 8.14081 9.08972 7.79503 9.08589 7.7724L9.0855 7.77001L8.51834 4.22085L8.51683 4.21261C8.50689 4.16582 8.4076 3.7144 8.23871 3.52722C8.2298 3.51735 8.21965 3.50921 8.20844 3.50205C8.12601 3.44941 7.75469 3.22081 7.52097 3.22021H4.03005C3.76592 3.22088 3.5128 3.32607 3.32603 3.51277C3.13926 3.69948 3.03404 3.95251 3.03337 4.21655C3.03337 8.36588 4.55706 12.3582 7.2947 15.4459C7.36547 15.5257 7.36267 15.647 7.28725 15.7224L1.86913 21.1406C1.79102 21.2187 1.79102 21.3453 1.86913 21.4234L3.0005 22.5548C3.0786 22.6329 3.20524 22.6329 3.28334 22.5548L21.0005 4.83762C21.0786 4.75951 21.0786 4.63288 21.0005 4.55477L19.8691 3.4234C19.791 3.3453 19.6644 3.3453 19.5863 3.4234L10.212 12.7977Z" fill="black"/>
</svg>
