<svg xmlns="http://www.w3.org/2000/svg">
   <defs>


<!-- action -->
      <symbol id="croix_contour" viewBox="0 0 24 25">
       <path d="M20.2278 18.8273C20.3059 18.7491 20.3059 18.6225 20.2278 18.5444L13.8249 12.1415C13.7468 12.0634 13.7468 11.9367 13.8249 11.8586L20.2278 5.45568C20.3059 5.37757 20.3059 5.25094 20.2278 5.17284L19.8106 4.75568C19.7325 4.67757 19.6059 4.67757 19.5278 4.75568L13.1249 11.1586C13.0468 11.2367 12.9201 11.2367 12.842 11.1586L6.43908 4.75568C6.36097 4.67757 6.23434 4.67757 6.15623 4.75568L5.73908 5.17284C5.66097 5.25094 5.66097 5.37757 5.73908 5.45568L12.142 11.8586C12.2201 11.9367 12.2201 12.0634 12.142 12.1415L5.73908 18.5444C5.66097 18.6225 5.66097 18.7491 5.73908 18.8273L6.15624 19.2444C6.23434 19.3225 6.36097 19.3225 6.43908 19.2444L12.842 12.8415C12.9201 12.7634 13.0468 12.7634 13.1249 12.8415L19.5278 19.2444C19.6059 19.3225 19.7325 19.3225 19.8106 19.2444L20.2278 18.8273Z"/>
      </symbol>
      <symbol id="oui_contour" viewBox="0 0 24 25">
       <path fill-rule="evenodd" clip-rule="evenodd" d="M21.7308 6.48284C21.8089 6.56095 21.8089 6.68758 21.7308 6.76569L10.7248 17.7717C10.6469 17.8497 10.5205 17.8498 10.4424 17.7721L5.05896 12.4177C4.98065 12.3398 4.9803 12.2132 5.0582 12.1349L5.48131 11.7095C5.55921 11.6311 5.68584 11.6308 5.76415 11.7087L10.4404 16.3598C10.5186 16.4375 10.645 16.4374 10.7229 16.3594L21.0237 6.05858C21.1018 5.98047 21.2285 5.98047 21.3066 6.05858L21.7308 6.48284Z"/>
      </symbol>
      <symbol id="valider_cercle" viewBox="0 0 24 25">
       <path fill-rule="evenodd" clip-rule="evenodd" d="M13 21C8.02944 21 4 16.9706 4 12C4 7.02944 8.02944 3 13 3C17.9706 3 22 7.02944 22 12C22 16.9706 17.9706 21 13 21ZM3 12C3 6.47715 7.47715 2 13 2C18.5228 2 23 6.47715 23 12C23 17.5228 18.5228 22 13 22C7.47715 22 3 17.5228 3 12ZM12.8536 16.3536L19.7121 9.49497C19.7902 9.41687 19.7902 9.29024 19.7121 9.21213L19.2879 8.78787C19.2098 8.70976 19.0831 8.70976 19.005 8.78787L12.6184 15.1745C12.5429 15.25 12.4215 15.2529 12.3425 15.181L7.48432 10.7646C7.40259 10.6903 7.2761 10.6963 7.2018 10.778L6.7982 11.222C6.7239 11.3037 6.72992 11.4302 6.81165 11.5045L12.1637 16.37L12.3753 16.5624C12.4543 16.6342 12.5758 16.6313 12.6513 16.5558L12.8536 16.3536Z" />
      </symbol>
      <symbol id="annuler_cercle" viewBox="0 0 24 25">
       <path fill-rule="evenodd" clip-rule="evenodd" d="M12.9834 21C17.954 21 21.9834 16.9706 21.9834 12C21.9834 7.02944 17.954 3 12.9834 3C8.01284 3 3.9834 7.02944 3.9834 12C3.9834 16.9706 8.01284 21 12.9834 21ZM12.9834 22C18.5062 22 22.9834 17.5228 22.9834 12C22.9834 6.47715 18.5062 2 12.9834 2C7.46055 2 2.9834 6.47715 2.9834 12C2.9834 17.5228 7.46055 22 12.9834 22ZM16.4263 15.7701C16.3481 15.8482 16.2215 15.8482 16.1434 15.7701L13.1571 12.7838C13.079 12.7057 12.9523 12.7057 12.8742 12.7838L9.82331 15.8348C9.7452 15.9129 9.61857 15.9129 9.54046 15.8348L9.1162 15.4105C9.03809 15.3324 9.03809 15.2058 9.1162 15.1277L12.1671 12.0767C12.2452 11.9986 12.2452 11.872 12.1671 11.7939L9.24559 8.87238C9.16749 8.79427 9.16749 8.66764 9.24559 8.58953L9.66985 8.16527C9.74796 8.08716 9.87459 8.08716 9.95269 8.16527L12.8742 11.0868C12.9523 11.1649 13.079 11.1649 13.1571 11.0868L15.9815 8.26225C16.0597 8.18415 16.1863 8.18415 16.2644 8.26225L16.6887 8.68651C16.7668 8.76462 16.7668 8.89125 16.6887 8.96936L13.8642 11.7939C13.7861 11.872 13.7861 11.9986 13.8642 12.0767L16.8505 15.063C16.9286 15.1411 16.9286 15.2678 16.8505 15.3459L16.4263 15.7701Z"/>
      </symbol>
      <symbol id="edition_contour" viewBox="0 0 24 25">
       <path d="M21.0428 4C20.3428 3.3 19.6428 3 18.9428 3C17.7428 3 16.7428 4 16.7428 4L5.67622 15.0666C5.65426 15.0886 5.63772 15.1153 5.6279 15.1448L4.04283 19.9C3.84283 20.5 4.24283 21 4.74283 21C4.83201 21 4.92119 21 5.01037 21C5.03187 21 5.05323 20.9965 5.07362 20.9897L9.79804 19.4149C9.8275 19.4051 9.85426 19.3886 9.87622 19.3666L21.0428 8.2C21.0428 8.2 23.1428 6.1 21.0428 4ZM5.4162 19.7787C5.26077 19.8292 5.11366 19.6821 5.16418 19.5266L6.24196 16.2104C6.28812 16.0683 6.468 16.0252 6.57359 16.1308L8.81207 18.3692C8.91767 18.4748 8.87449 18.6547 8.73247 18.7009L5.4162 19.7787ZM7.17933 15.2414C7.10356 15.1629 7.10465 15.0382 7.18179 14.961L16.0014 6.14142C16.0795 6.06332 16.2061 6.06332 16.2843 6.14142L18.8022 8.65935C18.88 8.73715 18.8803 8.86319 18.8029 8.94142L9.98675 17.8545C9.90781 17.9343 9.77865 17.9335 9.70068 17.8528L7.17933 15.2414ZM20.3428 7.5L19.8843 7.95858C19.8061 8.03668 19.6795 8.03668 19.6014 7.95858L17.0843 5.44142C17.0061 5.36332 17.0061 5.23668 17.0843 5.15858L17.5374 4.70543C17.541 4.70181 17.5443 4.69871 17.5483 4.69543C17.6148 4.64007 18.2838 4.1 19.0428 4.1C19.5428 4.1 19.9428 4.3 20.3428 4.7C21.6428 6 20.6428 7.2 20.3428 7.5Z"/>
      </symbol>
      <symbol id="suprimer_contour" viewBox="0 0 24 25">
       <path fill-rule="evenodd" clip-rule="evenodd" d="M17.9834 4C19.0834 4 19.9834 4.9 19.9834 6V6.8C19.9834 6.91046 19.8939 7 19.7834 7H19.1834C19.0729 7 18.9834 7.08954 18.9834 7.2V19C18.9834 20.1 18.0834 21 16.9834 21H8.9834C7.8834 21 6.9834 20.1 6.9834 19V7.2C6.9834 7.08954 6.89386 7 6.7834 7H6.1834C6.07294 7 5.9834 6.91046 5.9834 6.8V6C5.9834 4.9 6.8834 4 7.9834 4H10.1598C10.2355 4 10.3039 3.95661 10.3431 3.89179C10.6694 3.35239 11.3264 3 11.9834 3H13.9834C14.6404 3 15.2974 3.35239 15.6237 3.89179C15.6629 3.95661 15.7313 4 15.807 4H17.9834ZM16.9834 20C17.5834 20 17.9834 19.5 17.9834 19V7.2C17.9834 7.08954 17.8939 7 17.7834 7H8.1834C8.07294 7 7.9834 7.08954 7.9834 7.2V19C7.9834 19.6 8.3834 20 8.9834 20H16.9834ZM6.99905 5.80071C6.98133 5.90974 7.07294 6 7.1834 6H18.7834C18.8939 6 18.9855 5.90974 18.9677 5.80071C18.8885 5.31306 18.5142 5 17.9834 5H15.1834C15.0729 5 14.9855 4.90974 14.9677 4.80071C14.8885 4.31306 14.5142 4 13.9834 4H11.9834C11.4526 4 11.0783 4.31306 10.999 4.80071C10.9813 4.90974 10.8939 5 10.7834 5H7.9834C7.45259 5 7.07831 5.31306 6.99905 5.80071ZM10.7834 9.98709H10.1834C10.0729 9.98709 9.9834 10.0766 9.9834 10.1871V16.7871C9.9834 16.8975 10.0729 16.9871 10.1834 16.9871H10.7834C10.8939 16.9871 10.9834 16.8975 10.9834 16.7871V10.1871C10.9834 10.0766 10.8939 9.98709 10.7834 9.98709ZM12.6834 9.98709H13.2834C13.3939 9.98709 13.4834 10.0766 13.4834 10.1871V16.7871C13.4834 16.8975 13.3939 16.9871 13.2834 16.9871H12.6834C12.5729 16.9871 12.4834 16.8975 12.4834 16.7871V10.1871C12.4834 10.0766 12.5729 9.98709 12.6834 9.98709ZM15.1834 9.98709H15.7834C15.8939 9.98709 15.9834 10.0766 15.9834 10.1871V16.7871C15.9834 16.8975 15.8939 16.9871 15.7834 16.9871H15.1834C15.0729 16.9871 14.9834 16.8975 14.9834 16.7871V10.1871C14.9834 10.0766 15.0729 9.98709 15.1834 9.98709Z" />
      </symbol>


<!-- singin  -->
      <symbol id="mail_contour" viewBox="0 0 24 25">
        <path fill-rule="evenodd" clip-rule="evenodd" d="M4 6H20C20.0611 6 20.0839 6.07295 20.0384 6.11367L14.3505 11.2022L13.6033 11.8707L12.9787 12.4294C12.4107 12.9376 11.5519 12.939 10.9822 12.4328L10.3061 11.8321L10.305 11.831L10.2998 11.8264L9.55029 11.1605L3.94392 6.17892C3.87169 6.11475 3.90339 6 4 6ZM3.2576 6.90683C3.15687 6.81732 3 6.86525 3 7V17C3 17.0618 3.00561 17.1223 3.01634 17.181C3.04078 17.3147 3.2024 17.3443 3.29974 17.2495L8.67816 12.0101C8.76134 11.929 8.75825 11.7944 8.67144 11.7173L3.2576 6.90683ZM3.98953 17.9736C3.97956 17.9833 3.98609 18 4 18H19.4438C19.6236 18 19.7121 17.7813 19.5829 17.6563L14.4575 12.6972C14.3822 12.6243 14.2633 12.622 14.1851 12.6919L13.6454 13.1747C12.6987 14.0216 11.2675 14.024 10.318 13.1803L9.72071 12.6496C9.64232 12.58 9.52343 12.5827 9.44831 12.6559L3.98953 17.9736ZM20.6807 17.327C20.7739 17.4172 20.9281 17.3952 20.963 17.2703C20.9871 17.1843 21 17.0937 21 17V7C21 6.97881 20.9993 6.95777 20.998 6.93691C20.9893 6.79629 20.824 6.75268 20.719 6.84661L15.2312 11.756C15.1447 11.8335 15.142 11.9681 15.2255 12.0488L20.6807 17.327ZM2 7C2 5.89543 2.89543 5 4 5H20C21.1046 5 22 5.89543 22 7V17C22 18.1046 21.1046 19 20 19H4C2.89543 19 2 18.1046 2 17V7Z" />
      </symbol>
      <symbol id="personne_morale_contour" viewBox="0 0 24 25">
        <path  d="M9.81615 5.47591C9.77404 5.43798 9.75 5.38398 9.75 5.32731V3.2C9.75 3.08954 9.66046 3 9.55 3H8.95C8.83954 3 8.75 3.08954 8.75 3.2V5.29931C8.75 5.36058 8.72192 5.41847 8.6738 5.45639L4.3292 8.88058C4.16079 9.01332 4.0625 9.21592 4.0625 9.43035V21.8C4.0625 21.9105 4.15204 22 4.2625 22H4.8625C4.97296 22 5.0625 21.9105 5.0625 21.8V9.67291C5.0625 9.61164 5.09058 9.55375 5.1387 9.51583L9.09611 6.39681C9.1726 6.33652 9.2814 6.3401 9.35376 6.40528L13.3714 10.0241C13.4135 10.062 13.4375 10.116 13.4375 10.1727V21.8C13.4375 21.9105 13.527 22 13.6375 22H14.2375C14.348 22 14.4375 21.9105 14.4375 21.8V9.95013C14.4375 9.75179 14.3534 9.56276 14.206 9.43002L9.81615 5.47591ZM18.8625 14.5833C18.973 14.5833 19.0625 14.6729 19.0625 14.7833V21.8C19.0625 21.9105 19.152 22 19.2625 22H19.8625C19.973 22 20.0625 21.9105 20.0625 21.8V14.2833C20.0625 13.8967 19.7491 13.5833 19.3625 13.5833H16.0125C15.902 13.5833 15.8125 13.6729 15.8125 13.7833V14.3833C15.8125 14.4938 15.902 14.5833 16.0125 14.5833H18.8625ZM16.0625 19.8C16.0625 19.9105 16.152 20 16.2625 20H16.8625C16.973 20 17.0625 19.9105 17.0625 19.8V17.2C17.0625 17.0895 16.973 17 16.8625 17H16.2625C16.152 17 16.0625 17.0895 16.0625 17.2V19.8ZM10.2625 15C10.152 15 10.0625 14.9105 10.0625 14.8V12.2C10.0625 12.0895 10.152 12 10.2625 12H10.8625C10.973 12 11.0625 12.0895 11.0625 12.2V14.8C11.0625 14.9105 10.973 15 10.8625 15H10.2625ZM7.0625 14.8C7.0625 14.9105 7.15204 15 7.2625 15H7.8625C7.97296 15 8.0625 14.9105 8.0625 14.8V12.2C8.0625 12.0895 7.97296 12 7.8625 12H7.2625C7.15204 12 7.0625 12.0895 7.0625 12.2V14.8ZM7.2625 21C7.15204 21 7.0625 20.9105 7.0625 20.8V18.2C7.0625 18.0895 7.15204 18 7.2625 18H7.8625C7.97296 18 8.0625 18.0895 8.0625 18.2V20.8C8.0625 20.9105 7.97296 21 7.8625 21H7.2625ZM10.0625 20.8C10.0625 20.9105 10.152 21 10.2625 21H10.8625C10.973 21 11.0625 20.9105 11.0625 20.8V18.2C11.0625 18.0895 10.973 18 10.8625 18H10.2625C10.152 18 10.0625 18.0895 10.0625 18.2V20.8Z" />
      </symbol>
      <symbol id="user_contour" viewBox="0 0 24 25">
        <path fill-rule="evenodd" clip-rule="evenodd" d="M18.4145 18.3759C16.7868 19.9976 14.5417 21 12.0625 21C7.09194 21 3.0625 16.9706 3.0625 12C3.0625 7.02944 7.09194 3 12.0625 3C17.0331 3 21.0625 7.02944 21.0625 12C21.0625 14.046 20.3798 15.9325 19.2298 17.4442C18.6894 15.693 15.8728 14.1015 13.4235 14.1015H10.7012C8.25203 14.1015 5.43568 15.6928 4.89502 17.4438C5.14533 17.7728 5.41779 18.0841 5.71016 18.3755V18.0338C5.71016 17.524 6.16857 16.7782 7.2256 16.0912C8.23218 15.4369 9.5374 15.0089 10.7012 15.0089H13.4235C14.5873 15.0089 15.8925 15.4369 16.8991 16.0912C17.9561 16.7782 18.4145 17.524 18.4145 18.0338V18.3759ZM22.0625 12C22.0625 17.5228 17.5853 22 12.0625 22C6.53965 22 2.0625 17.5228 2.0625 12C2.0625 6.47715 6.53965 2 12.0625 2C17.5853 2 22.0625 6.47715 22.0625 12ZM14.7847 9.11047C14.7847 10.614 13.5659 11.8328 12.0623 11.8328C10.5588 11.8328 9.33998 10.614 9.33998 9.11047C9.33998 7.60695 10.5588 6.38811 12.0623 6.38811C13.5659 6.38811 14.7847 7.60695 14.7847 9.11047ZM15.6922 9.11047C15.6922 11.1152 14.067 12.7403 12.0623 12.7403C10.0576 12.7403 8.43253 11.1152 8.43253 9.11047C8.43253 7.10578 10.0576 5.48065 12.0623 5.48065C14.067 5.48065 15.6922 7.10578 15.6922 9.11047Z" />
      </symbol>
      <symbol id="cle_morale_contour" viewBox="0 0 24 25">
        <path fill-rule="evenodd" clip-rule="evenodd" d="M20.0545 10.5858C18.4924 12.1479 15.9597 12.1479 14.3976 10.5858C12.8355 9.02368 12.8356 6.49102 14.3976 4.92892C15.9597 3.36682 18.4924 3.36682 20.0545 4.92892C21.6166 6.49102 21.6166 9.02368 20.0545 10.5858ZM20.7616 11.2929C18.8564 13.1981 15.7962 13.2444 13.8349 11.4317C13.7538 11.3567 13.6272 11.3562 13.5491 11.4343L9.94287 15.0405C9.86477 15.1187 9.86477 15.2453 9.94287 15.3234L12.4885 17.869C12.5666 17.9471 12.5666 18.0737 12.4885 18.1518L12.0642 18.5761C11.9861 18.6542 11.8595 18.6542 11.7814 18.5761L9.23577 16.0305C9.15766 15.9524 9.03103 15.9524 8.95292 16.0305L7.82155 17.1619C7.74345 17.24 7.74345 17.3666 7.82155 17.4447L10.3671 19.9903C10.4452 20.0684 10.4452 20.195 10.3671 20.2731L9.94288 20.6974C9.86477 20.7755 9.73814 20.7755 9.66003 20.6974L7.11445 18.1518C7.03634 18.0737 6.90971 18.0737 6.8316 18.1518L5.34668 19.6367C5.26858 19.7148 5.14194 19.7148 5.06384 19.6367L4.63957 19.2125C4.56147 19.1344 4.56147 19.0077 4.63957 18.9296L12.9386 10.6306C13.0058 10.5634 13.0159 10.4582 12.9661 10.3772C11.7787 8.45018 12.0202 5.89212 13.6905 4.22181C15.6432 2.26919 18.809 2.26919 20.7616 4.22181C22.7142 6.17443 22.7142 9.34026 20.7616 11.2929Z" />
      </symbol>
      <symbol id="chevron_droite" viewBox="0 0 24 25">
       <path d="M14.7164 11.9903C14.7945 12.0694 14.7945 12.1978 14.7164 12.2769L9.70895 17.351C9.62714 17.4339 9.6316 17.5696 9.71867 17.6468L10.2158 18.0876C10.2955 18.1582 10.4158 18.1537 10.4901 18.0771L16.1187 12.2769C16.1957 12.1976 16.1952 12.0702 16.1175 11.9915L10.3992 6.19705C10.3211 6.11791 10.1945 6.11791 10.1164 6.19705L9.6992 6.61976C9.6211 6.69891 9.6211 6.82723 9.6992 6.90637L14.7164 11.9903Z"/>
      </symbol>
      <symbol id="chevron_gauche" viewBox="0 0 24 25">
       <path d="M11.0997 12.2811C11.0216 12.2019 11.0216 12.0735 11.0997 11.9943L16.1168 6.90689C16.195 6.8277 16.195 6.69929 16.1168 6.62009L15.6997 6.19709C15.6216 6.1179 15.495 6.1179 15.4168 6.19709L9.69969 11.9943C9.62159 12.0735 9.62159 12.2019 9.69969 12.2811L15.4168 18.0783C15.495 18.1575 15.6216 18.1575 15.6997 18.0783L16.1168 17.6553C16.195 17.5761 16.195 17.4477 16.1168 17.3685L11.0997 12.2811Z"/>
      </symbol>


<!-- parametre -->
      <symbol id="reglages_glyph" viewBox="0 0 24 25">
       <path fill-rule="evenodd" clip-rule="evenodd" d="M21.0015 2.29796C21.0015 2.19256 20.9119 2.10712 20.8015 2.10712H18.7015C18.591 2.10712 18.5015 2.19256 18.5015 2.29796V13.3629C18.5015 13.4683 18.591 13.5537 18.7015 13.5537H20.8015C20.9119 13.5537 21.0015 13.4683 21.0015 13.3629V2.29796ZM3.1082 9.79015C2.99775 9.79015 2.9082 9.70471 2.9082 9.59931V7.11835C2.9082 7.01295 2.99775 6.92751 3.1082 6.92751H8.7082C8.81866 6.92751 8.9082 7.01295 8.9082 7.11835V9.59931C8.9082 9.70471 8.81866 9.79015 8.7082 9.79015H3.1082ZM10.1082 10.7444C9.99775 10.7444 9.9082 10.8298 9.9082 10.9352V13.4162C9.9082 13.5216 9.99775 13.607 10.1082 13.607H15.7082C15.8187 13.607 15.9082 13.5216 15.9082 13.4162V10.9352C15.9082 10.8298 15.8187 10.7444 15.7082 10.7444H10.1082ZM17.1082 17.4239C16.9977 17.4239 16.9082 17.3384 16.9082 17.233V14.7521C16.9082 14.6467 16.9977 14.5612 17.1082 14.5612H22.7082C22.8187 14.5612 22.9082 14.6467 22.9082 14.7521V17.233C22.9082 17.3384 22.8187 17.4239 22.7082 17.4239H17.1082ZM4.49561 10.8513C4.49561 10.7459 4.58515 10.6605 4.69561 10.6605H6.79561C6.90606 10.6605 6.99561 10.7459 6.99561 10.8513V21.9163C6.99561 22.0217 6.90606 22.1071 6.79561 22.1071H4.69561C4.58515 22.1071 4.49561 22.0217 4.49561 21.9163V10.8513ZM11.6582 2.29796C11.6582 2.19256 11.7477 2.10712 11.8582 2.10712H13.9582C14.0687 2.10712 14.1582 2.19256 14.1582 2.29796V9.46603C14.1582 9.57143 14.0687 9.65688 13.9582 9.65688H11.8582C11.7477 9.65688 11.6582 9.57143 11.6582 9.46603V2.29796ZM14.1582 14.8534C14.1582 14.748 14.0687 14.6626 13.9582 14.6626H11.8582C11.7477 14.6626 11.6582 14.748 11.6582 14.8534V21.9163C11.6582 22.0217 11.7477 22.1071 11.8582 22.1071H13.9582C14.0687 22.1071 14.1582 22.0217 14.1582 21.9163V14.8534ZM18.5015 18.5955C18.5015 18.4901 18.591 18.4047 18.7015 18.4047H20.8015C20.9119 18.4047 21.0015 18.4901 21.0015 18.5955V21.9163C21.0015 22.0217 20.9119 22.1071 20.8015 22.1071H18.7015C18.591 22.1071 18.5015 22.0217 18.5015 21.9163V18.5955ZM6.99561 2.29796C6.99561 2.19256 6.90606 2.10712 6.79561 2.10712H4.69561C4.58515 2.10712 4.49561 2.19256 4.49561 2.29796V5.82112C4.49561 5.92652 4.58515 6.01196 4.69561 6.01196H6.79561C6.90606 6.01196 6.99561 5.92652 6.99561 5.82112V2.29796Z"/>
      </symbol>
      <symbol id="user_glyph" viewBox="0 0 24 25">
       <path fill-rule="evenodd" clip-rule="evenodd" d="M12.0625 22C17.5854 22 22.0625 17.5228 22.0625 12C22.0625 6.47717 17.5854 2 12.0625 2C6.53955 2 2.0625 6.47717 2.0625 12C2.0625 17.5228 6.53955 22 12.0625 22ZM12.0623 21C14.9746 21 17.5637 19.6169 19.2087 17.4717C18.6938 15.8511 15.8708 14.3713 13.418 14.3713H10.707C8.25391 14.3713 5.43091 15.8513 4.91626 17.4719C6.56128 19.6169 9.15039 21 12.0623 21ZM12.0625 12.5641C14.0588 12.5641 15.677 10.9459 15.677 8.94971C15.677 6.95349 14.0588 5.33527 12.0625 5.33527C10.0662 5.33527 8.448 6.95349 8.448 8.94971C8.448 10.9459 10.0662 12.5641 12.0625 12.5641Z"/>
      </symbol>
      <symbol id="logout_contour" viewBox="0 0 24 25">
       <path fill-rule="evenodd" clip-rule="evenodd" d="M3.9082 6.4907C3.9082 5.1912 5.02228 4.13776 6.39657 4.13776H17.1454C17.2558 4.13776 17.3454 4.2273 17.3454 4.33776V4.87893C17.3454 4.98939 17.2558 5.07893 17.1454 5.07893H6.39657C5.572 5.07893 4.90355 5.711 4.90355 6.4907V17.7848C4.90355 18.5645 5.572 19.1966 6.39657 19.1966H17.1454C17.2558 19.1966 17.3454 19.2861 17.3454 19.3966V19.9378C17.3454 20.0482 17.2558 20.1378 17.1454 20.1378H6.39657C5.02228 20.1378 3.9082 19.0843 3.9082 17.7848V6.4907ZM20.2913 11.6672H6.59648C6.48603 11.6672 6.39648 11.7567 6.39648 11.8672V12.4083C6.39648 12.5188 6.48603 12.6083 6.59648 12.6083H20.2913L17.0932 16.3884C17.0191 16.476 17.0337 16.6078 17.1252 16.6771L17.583 17.0233C17.6677 17.0874 17.7877 17.0741 17.8563 16.993L21.8548 12.2669C21.9179 12.1923 21.9179 12.0831 21.8548 12.0085L17.8563 7.28244C17.7877 7.20135 17.6677 7.18804 17.583 7.25212L17.1252 7.59839C17.0337 7.66761 17.0191 7.79947 17.0932 7.88707L20.2913 11.6672Z"/>
      </symbol>
      <symbol id="menu_glyph" viewBox="0 0 24 25">
       <path fill-rule="evenodd" clip-rule="evenodd" d="M3 4.7C3 4.58954 3.08954 4.5 3.2 4.5H20.8C20.9105 4.5 21 4.58954 21 4.7V7.3C21 7.41046 20.9105 7.5 20.8 7.5H3.2C3.08954 7.5 3 7.41046 3 7.3V4.7ZM3 10.7C3 10.5895 3.08954 10.5 3.2 10.5H20.8C20.9105 10.5 21 10.5895 21 10.7V13.3C21 13.4105 20.9105 13.5 20.8 13.5H3.2C3.08954 13.5 3 13.4105 3 13.3V10.7ZM21 16.7C21 16.5895 20.9105 16.5 20.8 16.5H3.2C3.08954 16.5 3 16.5895 3 16.7V19.3C3 19.4105 3.08954 19.5 3.2 19.5H20.8C20.9105 19.5 21 19.4105 21 19.3V16.7Z"/>
      </symbol>      


<!-- call -->

      <symbol id="appelmanque_glyph" viewBox="0 0 24 25">
       <path fill-rule="evenodd" clip-rule="evenodd" d="M27.588 6.33993C27.464 6.21334 27.5537 6 27.7309 6H36.6644C36.7749 6 36.8644 6.08954 36.8644 6.2V15.3231C36.8644 15.5023 36.6469 15.591 36.5215 15.463L33.5617 12.4404C33.4833 12.3603 33.3543 12.3603 33.2759 12.4404L24.7714 21.1262L23.5553 22.3681C23.4769 22.4482 23.3479 22.4482 23.2695 22.3682L22.0534 21.1262L12.5811 11.453C12.5049 11.3752 12.5049 11.2509 12.5811 11.1731L15.0191 8.68341C15.0975 8.60331 15.2264 8.60331 15.3049 8.68341L23.2694 16.8169C23.3478 16.8969 23.4767 16.8969 23.5552 16.8168L30.5638 9.65877C30.64 9.58102 30.64 9.45667 30.5638 9.37892L27.588 6.33993ZM17.3087 33.8253C17.3186 34.1324 17.2443 34.4311 17.0942 34.6876C16.9507 34.9327 16.5015 35.2478 16.462 35.2752L16.4562 35.2794L11.8121 38.6448L11.8011 38.6523C11.7354 38.6947 11.0805 39.1102 10.6718 39.0976C10.2412 39.0843 9.8229 38.8974 9.50842 38.5777L5.37699 34.3587C5.06401 34.0375 4.88099 33.6104 4.86794 33.1706C4.85489 32.7308 5.01288 32.3142 5.30736 32.0119C10.3288 26.8839 17.264 24.1304 24.5873 24.357C31.9106 24.5836 39.0221 27.7718 44.3574 33.2203C44.6704 33.5415 44.8534 33.9686 44.8664 34.4084C44.8795 34.8481 44.7215 35.2647 44.427 35.5671L40.5245 39.5524C40.2625 39.8185 39.5758 39.965 39.4211 39.9953C39.4001 39.9994 39.379 40.0011 39.3573 39.9993C38.9461 39.965 38.2988 39.5306 38.2321 39.4851L38.2206 39.4769L33.3695 35.8178L33.3662 35.8154C33.335 35.7923 32.8602 35.4381 32.7018 35.1792C32.5422 34.9184 32.452 34.6228 32.4405 34.3235C32.4399 34.3078 32.4385 34.2921 32.4359 34.2764L32.0966 32.1991C32.0758 32.0718 31.9861 31.9633 31.8654 31.9213C27.0441 30.241 21.9243 30.0743 17.1897 31.4426C17.0402 31.4859 16.9508 31.6358 16.9771 31.7964L17.3087 33.8253Z" />
      </symbol>
      <symbol id="appelout_glyph" viewBox="0 0 24 25">
       <path fill-rule="evenodd" clip-rule="evenodd" d="M30.9951 29.8254C30.656 29.9108 30.3461 30.0952 30.1003 30.3576L28.7017 32.3168C28.591 32.4719 28.3913 32.5205 28.2292 32.4299C23.096 29.5611 18.9074 25.0967 16.2236 19.6321C16.1564 19.4953 16.1703 19.3297 16.2581 19.2068L17.6903 17.2011C17.7011 17.186 17.7129 17.1718 17.7255 17.1582C17.9634 16.9009 18.1318 16.5801 18.2128 16.2294C18.2931 15.8813 18.1849 15.187 18.1777 15.1415L18.1769 15.1367L17.1054 8.00944L17.1025 7.9929C17.0837 7.89894 16.8961 6.99239 16.577 6.61652C16.5602 6.59669 16.541 6.58035 16.5198 6.56597C16.3641 6.46025 15.6625 6.00119 15.221 6H8.6253C8.12625 6.00134 7.64801 6.21257 7.29513 6.5875C6.94225 6.96244 6.74345 7.47057 6.74219 8.00081C6.74219 17.018 10.1135 25.6658 16.1145 32.0419C22.1156 38.418 30.2547 42 38.7414 42C39.2405 41.9987 39.7187 41.7874 40.0716 41.4125C40.4245 41.0376 40.6233 40.5294 40.6245 39.9992V33.0167C40.6233 32.4864 40.4245 31.9783 40.0716 31.6034C39.7367 31.2476 38.8395 31.038 38.7488 31.0175L38.7333 31.0145L32.0239 29.8749L32.0156 29.8733C31.9596 29.8627 31.3192 29.7438 30.9951 29.8254ZM33.4572 24.7215C33.3309 24.8465 33.1165 24.7571 33.1165 24.5794V19.5412C33.1165 19.4307 33.027 19.3412 32.9165 19.3412H21.7657C21.6553 19.3412 21.5657 19.2516 21.5657 19.1412V11.9176C21.5657 11.8072 21.6553 11.7176 21.7657 11.7176H32.9165C33.027 11.7176 33.1165 11.6281 33.1165 11.5176V6.47943C33.1165 6.30174 33.3309 6.21228 33.4572 6.3373L42.5986 15.3873C42.6777 15.4655 42.6777 15.5933 42.5986 15.6715L33.4572 24.7215Z" />
      </symbol>
      <symbol id="appelin_glyph" viewBox="0 0 24 25">
       <path fill-rule="evenodd" clip-rule="evenodd" d="M30.8533 29.8254C30.5161 29.9108 30.2081 30.0952 29.9637 30.3576L28.5733 32.3168C28.4632 32.4719 28.2647 32.5205 28.1036 32.4299C23.0003 29.5611 18.8362 25.0967 16.1681 19.6321C16.1014 19.4953 16.1152 19.3297 16.2024 19.2068L17.6263 17.2011C17.637 17.186 17.6488 17.1718 17.6612 17.1582C17.8978 16.9009 18.0652 16.5801 18.1457 16.2294C18.2256 15.8813 18.118 15.187 18.1108 15.1415L18.1101 15.1367L17.0448 8.00944L17.0419 7.9929C17.0233 7.89894 16.8368 6.99239 16.5195 6.61652C16.5028 6.59669 16.4837 6.58035 16.4627 6.56597C16.3078 6.46025 15.6104 6.00119 15.1714 6H8.61429C8.11816 6.00134 7.64271 6.21257 7.2919 6.5875C6.94108 6.96244 6.74344 7.47057 6.74219 8.00081C6.74219 17.018 10.0938 25.6658 16.0597 32.0419C22.0257 38.418 30.1172 42 38.5543 42C39.0504 41.9987 39.5259 41.7874 39.8767 41.4125C40.2275 41.0376 40.4251 40.5294 40.4264 39.9992V33.0167C40.4251 32.4864 40.2275 31.9783 39.8767 31.6034C39.5438 31.2476 38.6518 31.038 38.5617 31.0175L38.5462 31.0145L31.8761 29.8749L31.8678 29.8733C31.8121 29.8627 31.1755 29.7438 30.8533 29.8254ZM30.9178 24.7191C31.0439 24.8447 31.2589 24.7554 31.2589 24.5774V19.5412C31.2589 19.4307 31.3485 19.3412 31.4589 19.3412H42.5422C42.6526 19.3412 42.7422 19.2516 42.7422 19.1412V11.9176C42.7422 11.8072 42.6526 11.7176 42.5422 11.7176H31.4589C31.3485 11.7176 31.2589 11.6281 31.2589 11.5176V6.48142C31.2589 6.30344 31.0439 6.21411 30.9178 6.3397L21.8319 15.3877C21.7534 15.4659 21.7534 15.593 21.8319 15.6711L30.9178 24.7191Z"/>
      </symbol>
<!-- temps passe -->
      <symbol id="tempspasse" viewBox="0 0 24 25">
       <path fill-rule="evenodd" clip-rule="evenodd" d="M12.2536 2.25C12.3641 2.25 12.4536 2.33954 12.4536 2.45V3.55C12.4536 3.66046 12.3641 3.75 12.2536 3.75L9.88034 3.75C9.86555 3.75 9.85082 3.74764 9.83603 3.74724L9.83288 3.74719H7.14715C7.06426 3.74719 6.99707 3.83674 6.99707 3.94719V4.54856C6.99707 4.65902 7.06426 4.74856 7.14715 4.74856H9.29512C9.40557 4.74856 9.49512 4.83811 9.49512 4.94856V21.5487C9.49512 21.6591 9.40557 21.7487 9.29512 21.7487H6.70034C6.60439 21.7487 6.52661 21.8382 6.52661 21.9487V22.55C6.52661 22.6605 6.60439 22.75 6.70034 22.75H9.80931L9.81228 22.75H12.9536H13.447C13.4507 22.75 13.4536 22.747 13.4536 22.7434C13.4536 22.7398 13.4564 22.7369 13.4599 22.7367C18.4713 22.4736 22.4536 18.3269 22.4536 13.25C22.4536 10.8748 21.5819 8.70317 20.141 7.03759C20.0714 6.95713 20.0744 6.83631 20.1496 6.76108L21.0622 5.84853C21.1403 5.77042 21.2669 5.77042 21.345 5.84853L21.9586 6.46213C22.0368 6.54024 22.1634 6.54024 22.2415 6.46213L22.6658 6.03787C22.7439 5.95976 22.7439 5.83313 22.6658 5.75503L20.4486 3.53787C20.3705 3.45976 20.2439 3.45976 20.1658 3.53787L19.7415 3.96213C19.6634 4.04024 19.6634 4.16687 19.7415 4.24497L20.3551 4.85858C20.4332 4.93668 20.4332 5.06332 20.3551 5.14142L19.4425 6.05398C19.3673 6.12921 19.2465 6.1322 19.166 6.06259C17.6631 4.76236 15.748 3.92563 13.6432 3.77464C13.537 3.76703 13.4536 3.67947 13.4536 3.57303V2.45C13.4536 2.33954 13.5432 2.25 13.6536 2.25H15.2536C15.3641 2.25 15.4536 2.16046 15.4536 2.05V1.45C15.4536 1.33954 15.3641 1.25 15.2536 1.25H10.6536C10.5432 1.25 10.4536 1.33954 10.4536 1.45V2.05C10.4536 2.16046 10.5432 2.25 10.6536 2.25H12.2536ZM16.646 10.019C17.0564 9.40354 16.2587 8.70396 15.702 9.19109L12.1503 12.2989C11.9899 12.4392 11.898 12.6419 11.898 12.8549V13.6036C11.898 14.0117 12.2288 14.3425 12.6368 14.3425H13.3683C13.6154 14.3425 13.8461 14.219 13.9831 14.0134L16.646 10.019ZM13.2536 4.75C13.3641 4.75 13.4536 4.83954 13.4536 4.95V5.05C13.4536 5.16046 13.3641 5.25 13.2536 5.25H12.6536C12.5432 5.25 12.4536 5.16046 12.4536 5.05V4.95C12.4536 4.83954 12.5432 4.75 12.6536 4.75H13.2536ZM16.9061 5.36569C16.816 5.3018 16.6911 5.32304 16.6272 5.41314L16.5694 5.49471C16.5055 5.58482 16.5267 5.70965 16.6168 5.77355L17.1063 6.12062C17.1964 6.18452 17.3212 6.16327 17.3851 6.07317L17.443 5.9916C17.5068 5.9015 17.4856 5.77666 17.3955 5.71276L16.9061 5.36569ZM20.3357 8.58021C20.4042 8.66686 20.3895 8.79264 20.3029 8.86114L20.2244 8.92316C20.1378 8.99166 20.012 8.97695 19.9435 8.8903L19.5714 8.41962C19.5029 8.33297 19.5176 8.20719 19.6043 8.13869L19.6827 8.07667C19.7694 8.00817 19.8951 8.02288 19.9636 8.10953L20.3357 8.58021ZM20.7033 12.7998C20.7032 12.9102 20.7927 12.9998 20.9031 13L21.0031 13C21.1136 13.0002 21.2032 12.9107 21.2033 12.8002L21.2039 12.2002C21.204 12.0898 21.1146 12.0002 21.0041 12L20.9041 12C20.7937 11.9998 20.704 12.0893 20.7039 12.1998L20.7033 12.7998ZM19.9271 17.1105C19.9919 17.021 20.1169 17.001 20.2064 17.0658L20.2874 17.1244C20.3769 17.1892 20.3969 17.3142 20.3321 17.4037L19.9803 17.8897C19.9155 17.9792 19.7905 17.9992 19.701 17.9345L19.62 17.8758C19.5306 17.811 19.5105 17.686 19.5753 17.5965L19.9271 17.1105ZM16.5665 20.4482C16.473 20.507 16.4449 20.6305 16.5037 20.724L16.557 20.8086C16.6158 20.9021 16.7393 20.9302 16.8328 20.8714L17.3406 20.5519C17.4341 20.493 17.4622 20.3696 17.4034 20.2761L17.3501 20.1914C17.2913 20.0979 17.1678 20.0698 17.0744 20.1287L16.5665 20.4482ZM13.2536 21.25C13.3641 21.25 13.4536 21.3395 13.4536 21.45V21.55C13.4536 21.6605 13.3641 21.75 13.2536 21.75H12.6536C12.5432 21.75 12.4536 21.6605 12.4536 21.55V21.45C12.4536 21.3395 12.5432 21.25 12.6536 21.25H13.2536ZM4.47588 6.20081C4.36542 6.20081 4.27588 6.29035 4.27588 6.40081V7.00218C4.27588 7.11263 4.36542 7.20218 4.47588 7.20218H8.05493C8.16539 7.20218 8.25493 7.11263 8.25493 7.00218V6.40081C8.25493 6.29035 8.16539 6.20081 8.05493 6.20081H4.47588ZM4.27588 19.495C4.27588 19.3846 4.36542 19.295 4.47588 19.295H8.05493C8.16539 19.295 8.25493 19.3846 8.25493 19.495V20.0964C8.25493 20.2069 8.16539 20.2964 8.05493 20.2964H4.47588C4.36542 20.2964 4.27588 20.2069 4.27588 20.0964V19.495ZM2.44658 9.47437C2.33613 9.47437 2.24658 9.56391 2.24658 9.67437V10.2757C2.24658 10.3862 2.33613 10.4757 2.44658 10.4757H8.05483C8.16528 10.4757 8.25483 10.3862 8.25483 10.2757V9.67437C8.25483 9.56391 8.16528 9.47437 8.05483 9.47437H2.44658ZM2.24658 16.2215C2.24658 16.111 2.33613 16.0215 2.44658 16.0215H8.05483C8.16528 16.0215 8.25483 16.111 8.25483 16.2215V16.8229C8.25483 16.9333 8.16528 17.0229 8.05483 17.0229H2.44658C2.33613 17.0229 2.24658 16.9333 2.24658 16.8229V16.2215ZM1.47588 12.7479C1.36542 12.7479 1.27588 12.8375 1.27588 12.9479V13.5493C1.27588 13.6598 1.36542 13.7493 1.47588 13.7493H8.05483C8.16528 13.7493 8.25483 13.6598 8.25483 13.5493V12.9479C8.25483 12.8375 8.16528 12.7479 8.05483 12.7479H1.47588Z" />
      </symbol>



















<!-- carte -->

      <symbol id="travaux" viewBox="0 0 24 25">
         <path fill-rule="evenodd" clip-rule="evenodd" d="M13.1632 2.15092C13.1407 2.06217 13.0609 2 12.9693 2H11.0307C10.9391 2 10.8593 2.06217 10.8368 2.15092L9.5318 7.30648C9.49981 7.43285 9.59533 7.55556 9.72568 7.55556H14.2743C14.4047 7.55556 14.5002 7.43285 14.4682 7.30648L13.1632 2.15092ZM15.132 9.9287C15.1095 9.83995 15.0296 9.77778 14.9381 9.77778H9.06193C8.97038 9.77778 8.89051 9.83995 8.86805 9.9287L7.8443 13.9731C7.81231 14.0995 7.90783 14.2222 8.03818 14.2222H15.9618C16.0922 14.2222 16.1877 14.0995 16.1557 13.9731L15.132 9.9287ZM6.21932 19.7778C6.31087 19.7778 6.39074 19.7156 6.4132 19.6269L7.18055 16.5954C7.20301 16.5066 7.28288 16.4444 7.37443 16.4444H16.6256C16.7171 16.4444 16.797 16.5066 16.8195 16.5954L17.5868 19.6269C17.6093 19.7156 17.6891 19.7778 17.7807 19.7778H20.2818C20.3734 19.7778 20.4532 19.8399 20.4757 19.9287L20.937 21.7509C20.9689 21.8773 20.8734 22 20.7431 22H3.25693C3.12658 22 3.03106 21.8773 3.06305 21.7509L3.5243 19.9287C3.54676 19.8399 3.62663 19.7778 3.71818 19.7778H6.21932Z" />
      </symbol>






  
      <symbol id="dossier" viewBox="0 0 24 25">
       <path d="M2 6.75641C2 6.72324 2.00825 6.6906 2.024 6.66142L3.94333 3.10501C3.97824 3.04032 4.04582 3 4.11933 3H15.5678C15.6398 3 15.7062 3.03865 15.7417 3.10121L17.732 6.60467C17.7675 6.66723 17.8339 6.70588 17.9059 6.70588H21.8C21.9105 6.70588 22 6.79543 22 6.90588V20.8C22 20.9105 21.9105 21 21.8 21H2.2C2.08954 21 2 20.9105 2 20.8V6.75641Z"/>
      </symbol>
      <symbol id=" " viewBox="0 0 24 25">
       
      </symbol>
      <symbol id=" " viewBox="0 0 24 25">
       
      </symbol>
      <symbol id=" " viewBox="0 0 24 25">
       
      </symbol>
      <symbol id=" " viewBox="0 0 24 25">
       
      </symbol>
      <symbol id=" " viewBox="0 0 24 25">
       
      </symbol>
       <symbol id=" " viewBox="0 0 24 25">
       
      </symbol>
      <symbol id=" " viewBox="0 0 24 25">
       
      </symbol>
      <symbol id=" " viewBox="0 0 24 25">
       
      </symbol>
      <symbol id=" " viewBox="0 0 24 25">
       
      </symbol>
      <symbol id=" " viewBox="0 0 24 25">
       
      </symbol>
      <symbol id=" " viewBox="0 0 24 25">
       
      </symbol>
      <symbol id=" " viewBox="0 0 24 25">
       
      </symbol>
      <symbol id=" " viewBox="0 0 24 25">
       
      </symbol>
      










































   </defs>
</svg>