<svg width="20" height="22" viewBox="0 0 20 22" fill="none" xmlns="http://www.w3.org/2000/svg">
<path fill-rule="evenodd" clip-rule="evenodd" d="M8.01738 0.933594C7.90693 0.933594 7.81738 1.02314 7.81738 1.13359V1.73359C7.81738 1.84405 7.90693 1.93359 8.01738 1.93359H9.61738C9.72784 1.93359 9.81738 2.02314 9.81738 2.13359V3.23359C9.81738 3.34405 9.72784 3.43359 9.61738 3.43359H8.51738C8.40693 3.43359 8.31738 3.52314 8.31738 3.63359V4.23359C8.31738 4.34405 8.40693 4.43359 8.51738 4.43359H9.61738C9.72784 4.43359 9.81738 4.52314 9.81738 4.63359V4.73359C9.81738 4.84405 9.90693 4.93359 10.0174 4.93359H10.6174C10.7278 4.93359 10.8174 4.84405 10.8174 4.73359V4.63359C10.8174 4.52314 10.907 4.43334 11.0174 4.43605C12.059 4.4616 13.0512 4.68624 13.9574 5.07336C14.0614 5.11779 14.1047 5.24099 14.0541 5.34216L13.9596 5.5311C13.9102 5.6299 13.9503 5.75003 14.0491 5.79943L14.5857 6.06776C14.6845 6.11716 14.8046 6.07711 14.854 5.97831L14.9301 5.82618C14.9827 5.72093 15.1145 5.68346 15.2128 5.7482C15.9757 6.25081 16.6475 6.88052 17.198 7.60718C17.2574 7.68552 17.2485 7.79539 17.179 7.86489L17.1053 7.93862C17.0271 8.01672 17.0271 8.14336 17.1053 8.22146L17.5957 8.71187C17.6372 8.75344 17.7046 8.75344 17.7462 8.71187C17.7965 8.6616 17.881 8.67377 17.9139 8.7368C18.3872 9.64354 18.6918 10.6523 18.7861 11.7215C18.7963 11.8363 18.7046 11.9336 18.5893 11.9336H18.5174C18.4069 11.9336 18.3174 12.0231 18.3174 12.1336V12.7336C18.3174 12.8441 18.4069 12.9336 18.5174 12.9336H18.5893C18.7046 12.9336 18.7963 13.0309 18.7861 13.1457C18.7107 14.0008 18.5008 14.8172 18.1776 15.5736C18.1332 15.6777 18.01 15.7209 17.9088 15.6703L17.7199 15.5758C17.6211 15.5264 17.5009 15.5665 17.4515 15.6653L17.1832 16.2019C17.1338 16.3007 17.1739 16.4209 17.2727 16.4702L17.4248 16.5463C17.5301 16.5989 17.5675 16.7308 17.5028 16.829C16.9032 17.7391 16.1229 18.5194 15.2128 19.119C15.1145 19.1837 14.9827 19.1463 14.9301 19.041L14.854 18.8889C14.8046 18.7901 14.6845 18.75 14.5857 18.7994L14.0491 19.0678C13.9503 19.1172 13.9102 19.2373 13.9596 19.3361L14.0541 19.525C14.1047 19.6262 14.0614 19.7494 13.9574 19.7938C13.0512 20.1809 12.059 20.4056 11.0174 20.4311C10.907 20.4339 10.8174 20.344 10.8174 20.2336V20.1336C10.8174 20.0231 10.7278 19.9336 10.6174 19.9336H10.0174C9.90693 19.9336 9.81738 20.0231 9.81738 20.1336V20.2336C9.81738 20.344 9.72784 20.4336 9.61738 20.4336H8.51738C8.40693 20.4336 8.31738 20.5231 8.31738 20.6336V21.2336C8.31738 21.344 8.40693 21.4336 8.51738 21.4336H10.8174C15.7879 21.4336 19.8174 17.4042 19.8174 12.4336C19.8174 10.0718 18.9076 7.92242 17.4194 6.31689C17.3452 6.2368 17.346 6.11208 17.4232 6.03487L17.926 5.53212C18.0041 5.45402 18.1307 5.45402 18.2088 5.53212L18.8224 6.14573C18.9005 6.22383 19.0271 6.22383 19.1053 6.14573L19.5295 5.72146C19.6076 5.64336 19.6076 5.51672 19.5295 5.43862L17.3124 3.22146C17.2343 3.14336 17.1076 3.14336 17.0295 3.22146L16.6053 3.64573C16.5271 3.72383 16.5271 3.85046 16.6053 3.92857L17.2189 4.54217C17.297 4.62028 17.297 4.74691 17.2189 4.82502L16.6779 5.36593C16.605 5.43887 16.4887 5.44417 16.4079 5.38005C14.996 4.25952 13.24 3.55393 11.324 3.44761C11.3203 3.44741 11.3174 3.44433 11.3174 3.44061C11.3174 3.43673 11.3142 3.43359 11.3104 3.43359H11.0174C10.9069 3.43359 10.8174 3.34405 10.8174 3.23359V2.13359C10.8174 2.02314 10.9069 1.93359 11.0174 1.93359H12.6174C12.7278 1.93359 12.8174 1.84405 12.8174 1.73359V1.13359C12.8174 1.02314 12.7278 0.933594 12.6174 0.933594H8.01738ZM13.4212 9.05334C13.9487 8.59184 14.7043 9.2546 14.3156 9.83771L11.7928 13.6219C11.663 13.8166 11.4444 13.9336 11.2103 13.9336H10.5174C10.1308 13.9336 9.81738 13.6202 9.81738 13.2336V12.5243C9.81738 12.3225 9.90452 12.1305 10.0564 11.9975L13.4212 9.05334ZM3.38237 5.35132C3.27192 5.35132 3.18237 5.44086 3.18237 5.55132V6.15269C3.18237 6.26315 3.27192 6.35269 3.38237 6.35269H6.96142C7.07188 6.35269 7.16142 6.26315 7.16142 6.15269V5.55132C7.16142 5.44086 7.07188 5.35132 6.96142 5.35132H3.38237ZM3.18237 18.6456C3.18237 18.5351 3.27192 18.4456 3.38237 18.4456H6.96142C7.07188 18.4456 7.16142 18.5351 7.16142 18.6456V19.2469C7.16142 19.3574 7.07188 19.4469 6.96142 19.4469H3.38237C3.27192 19.4469 3.18237 19.3574 3.18237 19.2469V18.6456ZM1.35308 8.62488C1.24262 8.62488 1.15308 8.71442 1.15308 8.82488V9.42625C1.15308 9.53671 1.24262 9.62625 1.35308 9.62625H6.96132C7.07178 9.62625 7.16132 9.53671 7.16132 9.42625V8.82488C7.16132 8.71442 7.07178 8.62488 6.96132 8.62488H1.35308ZM1.15308 15.372C1.15308 15.2615 1.24262 15.172 1.35308 15.172H6.96132C7.07178 15.172 7.16132 15.2615 7.16132 15.372V15.9734C7.16132 16.0838 7.07178 16.1734 6.96132 16.1734H1.35308C1.24262 16.1734 1.15308 16.0838 1.15308 15.9734V15.372ZM0.382373 11.8984C0.271916 11.8984 0.182373 11.988 0.182373 12.0984V12.6998C0.182373 12.8103 0.271916 12.8998 0.382373 12.8998H6.96132C7.07178 12.8998 7.16132 12.8103 7.16132 12.6998V12.0984C7.16132 11.988 7.07178 11.8984 6.96132 11.8984H0.382373Z" fill="#56565c"/>
</svg>
