<svg width="24" height="25" viewBox="0 0 24 25" fill="none" xmlns="http://www.w3.org/2000/svg">
<path fill-rule="evenodd" clip-rule="evenodd" d="M15.0001 4.36837C15.0001 4.25791 15.0896 4.16837 15.2001 4.16837L15.8001 4.16837C15.9105 4.16837 16.0001 4.25791 16.0001 4.36837L16.0001 17.9172C16.0001 18.0925 16.2095 18.183 16.3371 18.0629L17.963 16.5327C18.04 16.4602 18.1601 16.4602 18.2371 16.5327L18.6453 16.9168C18.7292 16.9958 18.7292 17.1292 18.6453 17.2081L15.6371 20.0394C15.5601 20.1118 15.44 20.1118 15.363 20.0394L12.3548 17.2081C12.2709 17.1292 12.2709 16.9958 12.3548 16.9168L12.763 16.5327C12.84 16.4602 12.9601 16.4602 13.0371 16.5327L14.663 18.0629C14.7906 18.183 15.0001 18.0925 15.0001 17.9172L15.0001 4.36837ZM9.00007 19.9684C9.00007 20.0788 8.91052 20.1684 8.80007 20.1684L8.20007 20.1684C8.08961 20.1684 8.00007 20.0788 8.00007 19.9684L8.00007 6.41949C8.00007 6.24421 7.79063 6.15372 7.663 6.27384L6.03714 7.80406C5.96013 7.87654 5.84 7.87654 5.76299 7.80406L5.35481 7.41989C5.27091 7.34092 5.27091 7.20758 5.35481 7.12861L8.36299 4.29737C8.44 4.2249 8.56013 4.22489 8.63714 4.29737L11.6453 7.12861C11.7292 7.20758 11.7292 7.34092 11.6453 7.41989L11.2371 7.80406C11.1601 7.87654 11.04 7.87654 10.963 7.80406L9.33714 6.27385C9.2095 6.15372 9.00007 6.24421 9.00007 6.41949L9.00007 19.9684Z" fill="black"/>
</svg>
