<svg width="25" height="24" viewBox="0 0 25 24" fill="none" xmlns="http://www.w3.org/2000/svg">
<path fill-rule="evenodd" clip-rule="evenodd" d="M12.9834 21C17.954 21 21.9834 16.9706 21.9834 12C21.9834 7.02944 17.954 3 12.9834 3C8.01284 3 3.9834 7.02944 3.9834 12C3.9834 16.9706 8.01284 21 12.9834 21ZM12.9834 22C18.5062 22 22.9834 17.5228 22.9834 12C22.9834 6.47715 18.5062 2 12.9834 2C7.46055 2 2.9834 6.47715 2.9834 12C2.9834 17.5228 7.46055 22 12.9834 22ZM16.4263 15.7701C16.3481 15.8482 16.2215 15.8482 16.1434 15.7701L13.1571 12.7838C13.079 12.7057 12.9523 12.7057 12.8742 12.7838L9.82331 15.8348C9.7452 15.9129 9.61857 15.9129 9.54046 15.8348L9.1162 15.4105C9.03809 15.3324 9.03809 15.2058 9.1162 15.1277L12.1671 12.0767C12.2452 11.9986 12.2452 11.872 12.1671 11.7939L9.24559 8.87238C9.16749 8.79427 9.16749 8.66764 9.24559 8.58953L9.66985 8.16527C9.74796 8.08716 9.87459 8.08716 9.95269 8.16527L12.8742 11.0868C12.9523 11.1649 13.079 11.1649 13.1571 11.0868L15.9815 8.26225C16.0597 8.18415 16.1863 8.18415 16.2644 8.26225L16.6887 8.68651C16.7668 8.76462 16.7668 8.89125 16.6887 8.96936L13.8642 11.7939C13.7861 11.872 13.7861 11.9986 13.8642 12.0767L16.8505 15.063C16.9286 15.1411 16.9286 15.2678 16.8505 15.3459L16.4263 15.7701Z" fill="black"/>
</svg>
