<svg width="25" height="24" viewBox="0 0 25 24" fill="none" xmlns="http://www.w3.org/2000/svg">
<path fill-rule="evenodd" clip-rule="evenodd" d="M22.9834 12C22.9834 17.5228 18.5062 22 12.9834 22C7.46055 22 2.9834 17.5228 2.9834 12C2.9834 6.47715 7.46055 2 12.9834 2C18.5062 2 22.9834 6.47715 22.9834 12ZM11.4278 12.1413C11.5059 12.0632 11.5059 11.9366 11.4278 11.8585L8.88548 9.31618C8.80738 9.23807 8.80738 9.11144 8.88548 9.03333L10.0169 7.90196C10.095 7.82386 10.2216 7.82386 10.2997 7.90196L12.842 10.4442C12.9201 10.5223 13.0467 10.5223 13.1248 10.4442L15.6671 7.90196C15.7452 7.82386 15.8718 7.82386 15.9499 7.90196L17.0813 9.03333C17.1594 9.11144 17.1594 9.23807 17.0813 9.31618L14.539 11.8585C14.4609 11.9366 14.4609 12.0632 14.539 12.1413L17.0816 14.6838C17.1597 14.7619 17.1597 14.8886 17.0816 14.9667L15.9502 16.098C15.8721 16.1761 15.7454 16.1761 15.6673 16.098L13.1248 13.5555C13.0467 13.4774 12.9201 13.4774 12.842 13.5555L10.2995 16.098C10.2213 16.1761 10.0947 16.1761 10.0166 16.098L8.88524 14.9667C8.80713 14.8886 8.80713 14.7619 8.88524 14.6838L11.4278 12.1413Z" fill="white"/>
</svg>
