<svg width="25" height="24" viewBox="0 0 25 24" fill="none" xmlns="http://www.w3.org/2000/svg">
<path d="M20.2278 18.8273C20.3059 18.7491 20.3059 18.6225 20.2278 18.5444L13.8249 12.1415C13.7468 12.0634 13.7468 11.9367 13.8249 11.8586L20.2278 5.45568C20.3059 5.37757 20.3059 5.25094 20.2278 5.17284L19.8106 4.75568C19.7325 4.67757 19.6059 4.67757 19.5278 4.75568L13.1249 11.1586C13.0468 11.2367 12.9201 11.2367 12.842 11.1586L6.43908 4.75568C6.36097 4.67757 6.23434 4.67757 6.15623 4.75568L5.73908 5.17284C5.66097 5.25094 5.66097 5.37757 5.73908 5.45568L12.142 11.8586C12.2201 11.9367 12.2201 12.0634 12.142 12.1415L5.73908 18.5444C5.66097 18.6225 5.66097 18.7491 5.73908 18.8273L6.15624 19.2444C6.23434 19.3225 6.36097 19.3225 6.43908 19.2444L12.842 12.8415C12.9201 12.7634 13.0468 12.7634 13.1249 12.8415L19.5278 19.2444C19.6059 19.3225 19.7325 19.3225 19.8106 19.2444L20.2278 18.8273Z" fill="black"/>
</svg>
