<svg width="25" height="24" viewBox="0 0 25 24" fill="none" xmlns="http://www.w3.org/2000/svg">
<path fill-rule="evenodd" clip-rule="evenodd" d="M13 22C18.5228 22 23 17.5228 23 12C23 6.47715 18.5228 2 13 2C7.47715 2 3 6.47715 3 12C3 17.5228 7.47715 22 13 22ZM13.2328 16.6805L19.5967 9.82701C19.6719 9.74607 19.6672 9.61952 19.5862 9.54436L18.4138 8.45564C18.3328 8.38048 18.2063 8.38517 18.1311 8.46611L12.5257 14.5027C12.4545 14.5794 12.336 14.5882 12.2542 14.5228L8.28087 11.3441C8.19462 11.2751 8.06876 11.2891 7.99976 11.3753L7.00024 12.6247C6.93124 12.7109 6.94523 12.8368 7.03148 12.9058L11.8753 16.7809L12.4556 17.2451C12.5374 17.3106 12.6558 17.3018 12.7271 17.225L13.2328 16.6805Z" fill="white"/>
</svg>
