<svg width="25" height="24" viewBox="0 0 25 24" fill="none" xmlns="http://www.w3.org/2000/svg">
<path fill-rule="evenodd" clip-rule="evenodd" d="M13 21C8.02944 21 4 16.9706 4 12C4 7.02944 8.02944 3 13 3C17.9706 3 22 7.02944 22 12C22 16.9706 17.9706 21 13 21ZM3 12C3 6.47715 7.47715 2 13 2C18.5228 2 23 6.47715 23 12C23 17.5228 18.5228 22 13 22C7.47715 22 3 17.5228 3 12ZM12.8536 16.3536L19.7121 9.49497C19.7902 9.41687 19.7902 9.29024 19.7121 9.21213L19.2879 8.78787C19.2098 8.70976 19.0831 8.70976 19.005 8.78787L12.6184 15.1745C12.5429 15.25 12.4215 15.2529 12.3425 15.181L7.48432 10.7646C7.40259 10.6903 7.2761 10.6963 7.2018 10.778L6.7982 11.222C6.7239 11.3037 6.72992 11.4302 6.81165 11.5045L12.1637 16.37L12.3753 16.5624C12.4543 16.6342 12.5758 16.6313 12.6513 16.5558L12.8536 16.3536Z" fill="white"/>
</svg>
