<svg width="24" height="24" viewBox="0 0 24 24" fill="none" xmlns="http://www.w3.org/2000/svg">
<path fill-rule="evenodd" clip-rule="evenodd" d="M2.024 6.66142C2.00825 6.6906 2 6.72324 2 6.75641V20.8C2 20.9105 2.08954 21 2.2 21H21.8C21.9105 21 22 20.9105 22 20.8V6.90588C22 6.79543 21.9105 6.70588 21.8 6.70588H17.9059C17.8339 6.70588 17.7675 6.66723 17.732 6.60467L15.7417 3.10121C15.7062 3.03865 15.6398 3 15.5678 3H4.11933C4.04582 3 3.97824 3.04032 3.94333 3.10501L2.024 6.66142ZM5.40424 12.5537C5.40384 12.501 5.40406 12.4454 5.40508 12.3871C5.4124 11.9709 5.4613 11.4038 5.63509 10.8284C5.8088 10.2533 6.11581 9.64241 6.65796 9.17674C7.20871 8.70369 7.9596 8.41722 8.94675 8.42617C9.93229 8.4351 10.6802 8.73063 11.2285 9.20481C11.769 9.67223 12.0767 10.2792 12.2513 10.8508C12.426 11.4224 12.4756 11.9837 12.4835 12.3954C12.4845 12.4508 12.4848 12.5037 12.4845 12.5539C12.4839 12.6674 12.5744 12.7618 12.6879 12.7618H13.268C13.8202 12.7618 14.268 13.2095 14.268 13.7618V18.0563C14.268 18.6086 13.8202 19.0563 13.268 19.0563H4.65674C4.10445 19.0563 3.65674 18.6086 3.65674 18.0563V13.7618C3.65674 13.2095 4.10445 12.7618 4.65674 12.7618H5.20098C5.31457 12.7618 5.40509 12.6673 5.40424 12.5537ZM11.4844 12.571C11.4848 12.5221 11.4847 12.4697 11.4836 12.4144C11.4769 12.059 11.4337 11.5969 11.295 11.1431C11.1563 10.6892 10.9302 10.2688 10.5744 9.96122C10.2265 9.66035 9.71556 9.43318 8.93769 9.42613C8.16143 9.41909 7.65414 9.63933 7.30953 9.93533C6.95632 10.2387 6.73078 10.6593 6.59238 11.1175C6.45406 11.5755 6.41127 12.0438 6.40493 12.4047C6.40389 12.4637 6.40383 12.5194 6.40446 12.5713C6.40574 12.678 6.49401 12.7618 6.60074 12.7618H11.2882C11.395 12.7618 11.4833 12.6778 11.4844 12.571ZM7.31222 14.6201C7.31222 14.5582 7.26204 14.508 7.20014 14.508H6.86389C6.80199 14.508 6.75181 14.5582 6.75181 14.6201V15.5974C6.75181 15.6003 6.75169 15.6033 6.75146 15.6062C6.74798 15.65 6.71882 15.6878 6.67843 15.7066C6.64248 15.7233 6.60791 15.7424 6.57493 15.7638C6.3441 15.9137 6.19141 16.1737 6.19141 16.4694L6.19142 16.4749C6.19435 16.9366 6.56957 17.31 7.03202 17.31C7.49627 17.31 7.87263 16.9337 7.87263 16.4694C7.87263 16.1315 7.67319 15.8401 7.3856 15.7066C7.34252 15.6866 7.31222 15.6449 7.31222 15.5974V14.6201Z" fill="#585B60"/>
</svg>
