<svg width="24" height="24" viewBox="0 0 24 24" fill="none" xmlns="http://www.w3.org/2000/svg">
<path fill-rule="evenodd" clip-rule="evenodd" d="M2.024 6.66142C2.00825 6.6906 2 6.72324 2 6.75641V20.8C2 20.9105 2.08954 21 2.2 21H4.56209C3.9336 21 3.46091 20.4271 3.5803 19.81L4.49849 15.1613C4.51699 15.0676 4.59918 15 4.6947 15H6.77597C6.87134 15 6.95344 15.0674 6.9721 15.1609L7.8988 19.8046C8.02206 20.4232 7.54883 21 6.91808 21H21.8C21.9105 21 22 20.9105 22 20.8V6.90588C22 6.79543 21.9105 6.70588 21.8 6.70588H17.9059C17.8339 6.70588 17.7675 6.66723 17.732 6.60467L15.7417 3.10121C15.7062 3.03865 15.6398 3 15.5678 3H6.73921C6.84967 3 6.93921 3.08954 6.93921 3.2V5H5.13921C5.02876 5 4.93921 4.91046 4.93921 4.8V3.2C4.93921 3.08954 5.02876 3 5.13921 3H4.11933C4.04582 3 3.97824 3.04032 3.94333 3.10501L2.024 6.66142ZM6.93921 7H8.73921C8.84967 7 8.93921 6.91046 8.93921 6.8V5.2C8.93921 5.08954 8.84967 5 8.73921 5H6.93921L6.93921 7ZM6.93921 9L6.93921 7H5.13921C5.02876 7 4.93921 7.08954 4.93921 7.2V8.8C4.93921 8.91046 5.02876 9 5.13921 9H6.93921ZM6.93921 11H8.73921C8.84967 11 8.93921 10.9105 8.93921 10.8V9.2C8.93921 9.08954 8.84967 9 8.73921 9H6.93921L6.93921 11ZM6.93921 13L6.93921 11H5.13921C5.02876 11 4.93921 11.0895 4.93921 11.2V12.8C4.93921 12.9105 5.02876 13 5.13921 13H6.93921ZM6.93921 13L6.93921 14.8C6.93921 14.9105 7.02876 15 7.13921 15H8.73921C8.84967 15 8.93921 14.9105 8.93921 14.8V13.2C8.93921 13.0895 8.84967 13 8.73921 13H6.93921ZM5.74347 20.2737C6.42591 20.2737 6.97915 19.7503 6.97915 19.1046C6.97915 18.4589 6.42591 17.9355 5.74347 17.9355C5.06102 17.9355 4.50778 18.4589 4.50778 19.1046C4.50778 19.7503 5.06102 20.2737 5.74347 20.2737Z" fill="#585B60"/>
</svg>
