<svg width="162" height="126" viewBox="0 0 162 126" fill="none" xmlns="http://www.w3.org/2000/svg">
<g clip-path="url(#clip0)">
<path d="M52.3207 111.601H46.9998L35.0034 75.4941H42.3662L49.6701 99.0354L56.9739 75.4941H64.376L52.3207 111.601Z" fill="#F2C94C"/>
<path d="M84.6188 108.654C82.9892 110.382 80.2797 111.893 76.3332 111.893C72.4064 111.893 69.7362 110.382 68.1066 108.654C65.7112 106.16 65.1025 103.176 65.1025 98.3656C65.1025 93.5945 65.7112 90.6101 68.1066 88.1166C69.7362 86.3888 72.4064 84.877 76.3332 84.877C80.26 84.877 82.9695 86.3888 84.6188 88.1166C87.0142 90.6101 87.6228 93.5945 87.6228 98.3656C87.6228 103.176 87.0142 106.18 84.6188 108.654ZM79.455 91.9648C78.6893 91.1991 77.6683 90.8064 76.3332 90.8064C74.9981 90.8064 74.036 91.2187 73.2703 91.9648C71.8959 93.3392 71.7389 95.6168 71.7389 98.3459C71.7389 101.095 71.8959 103.412 73.2703 104.786C74.036 105.552 74.9981 105.944 76.3332 105.944C77.6683 105.944 78.6893 105.532 79.455 104.786C80.8294 103.412 80.9865 101.075 80.9865 98.3459C80.9865 95.6364 80.8294 93.3392 79.455 91.9648Z" fill="#F2C94C"/>
<path d="M94.4949 111.599V75.4922H101.602V111.599H94.4949Z" fill="#F2C94C"/>
<path d="M124.182 98.0125H117.192V111.599H110.085V75.4922H124.182C131.682 75.4922 136.179 80.6167 136.179 86.7425C136.179 92.888 131.682 98.0125 124.182 98.0125ZM123.809 81.7751H117.173V91.6707H123.809C127.029 91.6707 129.071 89.6876 129.071 86.7425C129.071 83.817 127.029 81.7751 123.809 81.7751Z" fill="#F2C94C"/>
<path fill-rule="evenodd" clip-rule="evenodd" d="M31.4667 32.1757C37.5526 21.5582 48.9943 14.4004 62.099 14.4004C78.5484 14.4004 92.3457 25.6426 96.2695 40.8996C108.127 42.7007 117.195 52.9363 116.986 65.3671C116.961 66.858 115.732 68.0464 114.241 68.0213C112.75 67.9962 111.562 66.7672 111.587 65.2762C111.758 55.0792 103.901 46.7533 93.8782 46.0644C92.661 45.9808 91.6511 45.0912 91.4145 43.8943C88.6944 30.1316 76.6073 19.8004 62.099 19.8004C50.5802 19.8004 40.5655 26.3312 35.5729 35.9198C35.1551 36.7222 34.3633 37.262 33.4638 37.3577C17.3158 39.076 5.95659 57.3009 17.0147 75.1262C20.0641 80.0136 25.2971 83.1504 31.0851 83.8457C32.5656 84.0235 33.6217 85.3679 33.4438 86.8484C33.266 88.329 31.9216 89.385 30.4411 89.2072C23.1539 88.3318 16.4109 84.3622 12.4311 77.9812L12.4278 77.9759C-0.463053 57.2003 12.2371 35.1975 31.4667 32.1757Z" fill="white"/>
<path fill-rule="evenodd" clip-rule="evenodd" d="M127.039 67.9918C127.039 66.7936 128.01 65.8223 129.208 65.8223C138.769 65.8223 146.535 73.5655 146.535 83.1493C146.535 84.3475 145.564 85.3188 144.366 85.3188C143.168 85.3188 142.196 84.3475 142.196 83.1493C142.196 75.9656 136.376 70.1613 129.208 70.1613C128.01 70.1613 127.039 69.19 127.039 67.9918Z" fill="#F2C94C"/>
<path fill-rule="evenodd" clip-rule="evenodd" d="M127.432 60.3941C127.432 59.1959 128.404 58.2246 129.602 58.2246C143.111 58.2246 154.056 69.17 154.056 82.6788C154.056 83.877 153.085 84.8484 151.887 84.8484C150.688 84.8484 149.717 83.877 149.717 82.6788C149.717 71.5665 140.714 62.5637 129.602 62.5637C128.404 62.5637 127.432 61.5924 127.432 60.3941Z" fill="#F2C94C"/>
<path d="M35.0427 66.698L35.0034 66.5409L35.9262 65.2843L36.1226 65.2647C36.4367 65.5396 36.9079 65.7752 37.5166 65.9715C38.1252 66.1679 38.6946 66.266 39.2051 66.266C40.069 66.266 40.7955 66.0501 41.3256 65.6378C41.8753 65.2254 42.1502 64.5579 42.1502 63.6743C42.1502 63.0068 41.9146 62.4767 41.4434 62.0447C40.9722 61.6324 40.4224 61.2986 39.7549 61.063C39.1069 60.8274 38.4394 60.5525 37.7915 60.2777C37.1239 59.9831 36.5741 59.5512 36.1029 58.9622C35.6317 58.3732 35.3961 57.6074 35.3961 56.7043C35.3961 55.3888 35.828 54.3482 36.7116 53.5628C37.5951 52.7774 38.6554 52.3848 39.9119 52.3848C40.5795 52.3848 41.247 52.4633 41.8557 52.64C42.484 52.7971 42.9356 52.9738 43.2105 53.1309C43.4853 53.2879 43.6817 53.4254 43.7798 53.5235L43.7995 53.6806L42.9356 54.9961L42.7589 55.0157C42.0324 54.466 41.1096 54.2107 39.9905 54.2107C39.1266 54.2107 38.459 54.4267 38.0074 54.8783C37.5558 55.3299 37.3399 55.9189 37.3399 56.665C37.3399 57.2736 37.5755 57.7841 38.0467 58.1768C38.5179 58.5695 39.0677 58.8836 39.7352 59.1192C40.3831 59.3549 41.0507 59.6297 41.6986 59.9242C42.3662 60.2188 42.9159 60.6703 43.3872 61.3183C43.8584 61.9466 44.094 62.7515 44.094 63.7136C44.094 64.5186 43.9565 65.2254 43.662 65.8145C43.3675 66.4035 42.9748 66.8747 42.4644 67.1888C41.9539 67.503 41.4434 67.7582 40.8936 67.8957C40.3439 68.0527 39.7549 68.1116 39.1462 68.1116C38.5375 68.1116 37.8504 67.9938 37.0454 67.7582C36.26 67.4637 35.5924 67.1299 35.0427 66.698Z" fill="white"/>
<path d="M47.4717 67.6787V52.6979L47.5895 52.5801H55.4038L55.5216 52.6979V54.2686L55.4038 54.3864H49.3566V58.9022H54.5988L54.697 59.0201L54.2847 60.5908L54.1473 60.7086H49.3566V66.0098H55.4235L55.5216 66.1276L55.3057 67.6983L55.1682 67.8161H47.5895L47.4717 67.6787Z" fill="white"/>
<path d="M58.5249 62.5338V57.9395C58.5249 56.1528 59.055 54.7784 60.1153 53.7967C61.1755 52.8346 62.6088 52.3438 64.4151 52.3438C65.6717 52.3438 66.7516 52.6186 67.6744 53.1487C68.5972 53.6985 69.2647 54.4642 69.6771 55.4459L69.6181 55.5834L68.1063 56.2117L67.9493 56.1724C67.6547 55.5441 67.1835 55.0533 66.5552 54.6802C65.9269 54.3268 65.2005 54.1304 64.4151 54.1304C63.2371 54.1304 62.275 54.4642 61.5486 55.1514C60.8221 55.8386 60.449 56.8007 60.449 58.0769V62.3178C60.449 63.6137 60.8025 64.5954 61.5289 65.2433C62.2554 65.9109 63.2174 66.2447 64.4151 66.2447C66.3 66.2447 67.5762 65.5378 68.2241 64.1438L68.3812 64.1045L69.8538 64.6739L69.9127 64.8114C69.5396 65.8716 68.8721 66.6766 67.9296 67.2264C66.9872 67.7761 65.8091 68.051 64.4151 68.051C62.5892 68.051 61.1559 67.5798 60.0956 66.6177C59.055 65.6753 58.5249 64.3009 58.5249 62.5338Z" fill="white"/>
<path d="M73.1533 67.6774V52.7948L73.2711 52.6574L74.94 52.4414L75.0578 52.5396V67.6774L74.94 67.7952H73.2711L73.1533 67.6774Z" fill="white"/>
<path d="M79.2598 67.6787V52.6979L79.3776 52.5801H83.4811C86.7796 52.5801 88.4092 53.8563 88.4092 56.4284C88.4092 57.1744 88.2325 57.8224 87.8595 58.3918C87.5061 58.9611 86.976 59.3735 86.3084 59.6091C87.0938 59.8643 87.7024 60.3159 88.154 60.9638C88.6056 61.6117 88.8216 62.3971 88.8216 63.3003C88.8216 64.7728 88.3503 65.892 87.3883 66.6381C86.4262 67.4038 85.2678 67.7768 83.8934 67.7768H79.3776L79.2598 67.6787ZM81.1446 58.8041H83.4811C85.5034 58.8041 86.5047 58.058 86.5047 56.5462C86.5047 55.6823 86.2299 55.1129 85.6801 54.7791C85.1304 54.4649 84.4039 54.3079 83.4811 54.3079H81.1446V58.8041ZM81.1446 66.049H83.6185C84.5413 66.049 85.3071 65.8331 85.9354 65.3815C86.5636 64.9299 86.8778 64.2427 86.8778 63.3003C86.8778 62.3578 86.5636 61.651 85.9354 61.1994C85.3071 60.7478 84.5217 60.5319 83.6185 60.5319H81.1446V66.049Z" fill="white"/>
</g>
<defs>
<clipPath id="clip0">
<rect width="162" height="126" fill="white"/>
</clipPath>
</defs>
</svg>
