<svg width="24" height="24" viewBox="0 0 24 24" fill="none" xmlns="http://www.w3.org/2000/svg">
<path fill-rule="evenodd" clip-rule="evenodd" d="M20 6H8.7C8.58954 6 8.5 6.08954 8.5 6.2V6.8C8.5 6.91046 8.41046 7 8.3 7H7.7C7.58954 7 7.5 6.91046 7.5 6.8V6.2C7.5 6.08954 7.41046 6 7.3 6H4C3.44769 6 3 6.44772 3 7V9.13218C3 9.15582 3.01482 9.17692 3.03705 9.18494C3.07428 9.19867 3.11133 9.21313 3.14807 9.22836C3.51202 9.37912 3.84277 9.6001 4.12134 9.87869C4.3999 10.1573 4.62085 10.488 4.77167 10.852C4.92242 11.2159 5 11.606 5 12C5 12.394 4.92242 12.7841 4.77167 13.148C4.62085 13.512 4.3999 13.8427 4.12134 14.1213C3.84277 14.3999 3.51202 14.6209 3.14807 14.7716C3.12451 14.7814 3.10083 14.7909 3.07709 14.8C3.03113 14.8177 3 14.8614 3 14.9106V17C3 17.5523 3.44769 18 4 18H7.3C7.41046 18 7.5 17.9105 7.5 17.8V17.2C7.5 17.0895 7.58954 17 7.7 17H8.3C8.41046 17 8.5 17.0895 8.5 17.2V17.8C8.5 17.9105 8.58954 18 8.7 18H20C20.5523 18 21 17.5523 21 17V14.9699C21 14.8851 20.9463 14.8102 20.8678 14.7782C20.8625 14.776 20.8572 14.7738 20.8519 14.7716C20.488 14.6209 20.1572 14.3999 19.8787 14.1213C19.6001 13.8427 19.3792 13.512 19.2283 13.148C19.0776 12.7841 19 12.394 19 12C19 11.606 19.0776 11.2159 19.2283 10.852C19.3792 10.488 19.6001 10.1573 19.8787 9.87869C20.1572 9.6001 20.488 9.37912 20.8519 9.22836C20.876 9.21835 20.9003 9.20868 20.9246 9.19934C20.9696 9.18208 21 9.13938 21 9.09124V7C21 6.44772 20.5523 6 20 6ZM4 19H7.5H8.5H20C21.1046 19 22 18.1046 22 17V15V14.2C22 14.0895 21.9102 14.0011 21.8003 13.9902C20.8055 13.8915 20.0251 13.064 20.0006 12.0492L20.0001 12.0244L20 12L20.0002 11.97L20.0007 11.9454C20.0279 10.9331 20.8073 10.1083 21.8003 10.0098C21.9102 9.99895 22 9.91046 22 9.8V9V7C22 5.89542 21.1046 5 20 5H8.5H7.5H4C2.89545 5 2 5.89542 2 7V9V9.8C2 9.91046 2.0898 9.99895 2.19972 10.0098C3.21051 10.1101 4 10.9628 4 12C4 13.0372 3.21051 13.8899 2.19972 13.9902C2.0898 14.0011 2 14.0895 2 14.2V15V17C2 18.1046 2.89545 19 4 19ZM8.5 11.2C8.5 11.0895 8.41046 11 8.3 11H7.7C7.58954 11 7.5 11.0895 7.5 11.2V12.8C7.5 12.9105 7.58954 13 7.7 13H8.3C8.41046 13 8.5 12.9105 8.5 12.8V11.2ZM7.7 10C7.58954 10 7.5 9.91046 7.5 9.8V8.2C7.5 8.08954 7.58954 8 7.7 8H8.3C8.41046 8 8.5 8.08954 8.5 8.2V9.8C8.5 9.91046 8.41046 10 8.3 10H7.7ZM8.5 14.2C8.5 14.0895 8.41046 14 8.3 14H7.7C7.58954 14 7.5 14.0895 7.5 14.2V15.8C7.5 15.9105 7.58954 16 7.7 16H8.3C8.41046 16 8.5 15.9105 8.5 15.8V14.2Z" fill="black"/>
</svg>
