<svg width="49" height="48" viewBox="0 0 49 48" fill="none" xmlns="http://www.w3.org/2000/svg">
<path fill-rule="evenodd" clip-rule="evenodd" d="M30.9951 29.8254C30.656 29.9108 30.3461 30.0952 30.1003 30.3576L28.7017 32.3168C28.591 32.4719 28.3913 32.5205 28.2292 32.4299C23.096 29.5611 18.9074 25.0967 16.2236 19.6321C16.1564 19.4953 16.1703 19.3297 16.2581 19.2068L17.6903 17.2011C17.7011 17.186 17.7129 17.1718 17.7255 17.1582C17.9634 16.9009 18.1318 16.5801 18.2128 16.2294C18.2931 15.8813 18.1849 15.187 18.1777 15.1415L18.1769 15.1367L17.1054 8.00944L17.1025 7.9929C17.0837 7.89894 16.8961 6.99239 16.577 6.61652C16.5602 6.59669 16.541 6.58035 16.5198 6.56597C16.3641 6.46025 15.6625 6.00119 15.221 6H8.6253C8.12625 6.00134 7.64801 6.21257 7.29513 6.5875C6.94225 6.96244 6.74345 7.47057 6.74219 8.00081C6.74219 17.018 10.1135 25.6658 16.1145 32.0419C22.1156 38.418 30.2547 42 38.7414 42C39.2405 41.9987 39.7187 41.7874 40.0716 41.4125C40.4245 41.0376 40.6233 40.5294 40.6245 39.9992V33.0167C40.6233 32.4864 40.4245 31.9783 40.0716 31.6034C39.7367 31.2476 38.8395 31.038 38.7488 31.0175L38.7333 31.0145L32.0239 29.8749L32.0156 29.8733C31.9596 29.8627 31.3192 29.7438 30.9951 29.8254ZM33.4572 24.7215C33.3309 24.8465 33.1165 24.7571 33.1165 24.5794V19.5412C33.1165 19.4307 33.027 19.3412 32.9165 19.3412H21.7657C21.6553 19.3412 21.5657 19.2516 21.5657 19.1412V11.9176C21.5657 11.8072 21.6553 11.7176 21.7657 11.7176H32.9165C33.027 11.7176 33.1165 11.6281 33.1165 11.5176V6.47943C33.1165 6.30174 33.3309 6.21228 33.4572 6.3373L42.5986 15.3873C42.6777 15.4655 42.6777 15.5933 42.5986 15.6715L33.4572 24.7215Z" fill="#27AE60"/>
</svg>
