<svg width="49" height="48" viewBox="0 0 49 48" fill="none" xmlns="http://www.w3.org/2000/svg">
<path fill-rule="evenodd" clip-rule="evenodd" d="M30.8533 29.8254C30.5161 29.9108 30.2081 30.0952 29.9637 30.3576L28.5733 32.3168C28.4632 32.4719 28.2647 32.5205 28.1036 32.4299C23.0003 29.5611 18.8362 25.0967 16.1681 19.6321C16.1014 19.4953 16.1152 19.3297 16.2024 19.2068L17.6263 17.2011C17.637 17.186 17.6488 17.1718 17.6612 17.1582C17.8978 16.9009 18.0652 16.5801 18.1457 16.2294C18.2256 15.8813 18.118 15.187 18.1108 15.1415L18.1101 15.1367L17.0448 8.00944L17.0419 7.9929C17.0233 7.89894 16.8368 6.99239 16.5195 6.61652C16.5028 6.59669 16.4837 6.58035 16.4627 6.56597C16.3078 6.46025 15.6104 6.00119 15.1714 6H8.61429C8.11816 6.00134 7.64271 6.21257 7.2919 6.5875C6.94108 6.96244 6.74344 7.47057 6.74219 8.00081C6.74219 17.018 10.0938 25.6658 16.0597 32.0419C22.0257 38.418 30.1172 42 38.5543 42C39.0504 41.9987 39.5259 41.7874 39.8767 41.4125C40.2275 41.0376 40.4251 40.5294 40.4264 39.9992V33.0167C40.4251 32.4864 40.2275 31.9783 39.8767 31.6034C39.5438 31.2476 38.6518 31.038 38.5617 31.0175L38.5462 31.0145L31.8761 29.8749L31.8678 29.8733C31.8121 29.8627 31.1755 29.7438 30.8533 29.8254ZM30.9178 24.7191C31.0439 24.8447 31.2589 24.7554 31.2589 24.5774V19.5412C31.2589 19.4307 31.3485 19.3412 31.4589 19.3412H42.5422C42.6526 19.3412 42.7422 19.2516 42.7422 19.1412V11.9176C42.7422 11.8072 42.6526 11.7176 42.5422 11.7176H31.4589C31.3485 11.7176 31.2589 11.6281 31.2589 11.5176V6.48142C31.2589 6.30344 31.0439 6.21411 30.9178 6.3397L21.8319 15.3877C21.7534 15.4659 21.7534 15.593 21.8319 15.6711L30.9178 24.7191Z" fill="#1F619E"/>
</svg>
