<svg width="25" height="24" viewBox="0 0 25 24" fill="none" xmlns="http://www.w3.org/2000/svg">
<path fill-rule="evenodd" clip-rule="evenodd" d="M15.6732 15.1788C15.7954 15.0476 15.9495 14.9554 16.118 14.9127C16.2791 14.8719 16.5975 14.9313 16.6253 14.9367L16.6295 14.9374L19.9645 15.5072L19.9722 15.5088C20.0173 15.519 20.4633 15.6238 20.6298 15.8017C20.8052 15.9892 20.904 16.2432 20.9046 16.5083V19.9996C20.904 20.2647 20.8052 20.5188 20.6298 20.7062C20.4543 20.8937 20.2166 20.9993 19.9686 21C15.75 21 11.7042 19.209 8.72128 16.0209C5.73831 12.8329 4.0625 8.50898 4.0625 4.0004C4.06313 3.73529 4.16195 3.48122 4.33735 3.29375C4.51276 3.10628 4.75049 3.00067 4.99855 3H8.2771C8.49659 3.00059 8.84533 3.23013 8.92274 3.28298C8.93327 3.29017 8.9428 3.29834 8.95117 3.30826C9.10979 3.4962 9.20303 3.94947 9.21237 3.99645L9.21379 4.00472L9.74644 7.56837L9.74681 7.57077C9.75041 7.59349 9.80418 7.94067 9.76425 8.11469C9.724 8.29004 9.64029 8.45045 9.52202 8.57912C9.5158 8.58588 9.50992 8.593 9.50456 8.60055L8.79263 9.60339C8.74901 9.66484 8.74209 9.74767 8.77548 9.81605C10.1095 12.5484 12.1916 14.7806 14.7432 16.2149C14.8238 16.2602 14.923 16.2359 14.978 16.1584L15.6732 15.1788ZM15.9796 6.67701C16.0577 6.5989 16.0577 6.47227 15.9796 6.39417L14.1411 4.55567C14.063 4.47757 14.063 4.35093 14.1411 4.27283L15.2725 3.14146C15.3506 3.06335 15.4772 3.06335 15.5553 3.14146L17.3938 4.97995C17.4719 5.05806 17.5985 5.05806 17.6766 4.97995L19.5153 3.14134C19.5934 3.06324 19.72 3.06324 19.7981 3.14134L20.9295 4.27271C21.0076 4.35082 21.0076 4.47745 20.9295 4.55556L19.0909 6.39417C19.0128 6.47227 19.0128 6.59891 19.0909 6.67701L20.9293 8.51547C21.0074 8.59357 21.0074 8.72021 20.9293 8.79831L19.798 9.92968C19.7198 10.0078 19.5932 10.0078 19.5151 9.92968L17.6766 8.09122C17.5985 8.01312 17.4719 8.01312 17.3938 8.09122L15.5555 9.92957C15.4774 10.0077 15.3507 10.0077 15.2726 9.92957L14.1412 8.7982C14.0631 8.72009 14.0631 8.59346 14.1412 8.51535L15.9796 6.67701Z" fill="black"/>
</svg>
