<svg width="24" height="24" viewBox="0 0 24 24" fill="none" xmlns="http://www.w3.org/2000/svg">
<path fill-rule="evenodd" clip-rule="evenodd" d="M12.2536 2.25C12.3641 2.25 12.4536 2.33954 12.4536 2.45V3.55C12.4536 3.66046 12.3641 3.75 12.2536 3.75L9.88034 3.75C9.86555 3.75 9.85082 3.74764 9.83603 3.74724L9.83288 3.74719H7.14715C7.06426 3.74719 6.99707 3.83674 6.99707 3.94719V4.54856C6.99707 4.65902 7.06426 4.74856 7.14715 4.74856H9.29512C9.40557 4.74856 9.49512 4.83811 9.49512 4.94856V21.5487C9.49512 21.6591 9.40557 21.7487 9.29512 21.7487H6.70034C6.60439 21.7487 6.52661 21.8382 6.52661 21.9487V22.55C6.52661 22.6605 6.60439 22.75 6.70034 22.75H9.80931L9.81228 22.75H12.9536H13.447C13.4507 22.75 13.4536 22.747 13.4536 22.7434C13.4536 22.7398 13.4564 22.7369 13.4599 22.7367C18.4713 22.4736 22.4536 18.3269 22.4536 13.25C22.4536 10.8748 21.5819 8.70317 20.141 7.03759C20.0714 6.95713 20.0744 6.83631 20.1496 6.76108L21.0622 5.84853C21.1403 5.77042 21.2669 5.77042 21.345 5.84853L21.9586 6.46213C22.0368 6.54024 22.1634 6.54024 22.2415 6.46213L22.6658 6.03787C22.7439 5.95976 22.7439 5.83313 22.6658 5.75503L20.4486 3.53787C20.3705 3.45976 20.2439 3.45976 20.1658 3.53787L19.7415 3.96213C19.6634 4.04024 19.6634 4.16687 19.7415 4.24497L20.3551 4.85858C20.4332 4.93668 20.4332 5.06332 20.3551 5.14142L19.4425 6.05398C19.3673 6.12921 19.2465 6.1322 19.166 6.06259C17.6631 4.76236 15.748 3.92563 13.6432 3.77464C13.537 3.76703 13.4536 3.67947 13.4536 3.57303V2.45C13.4536 2.33954 13.5432 2.25 13.6536 2.25H15.2536C15.3641 2.25 15.4536 2.16046 15.4536 2.05V1.45C15.4536 1.33954 15.3641 1.25 15.2536 1.25H10.6536C10.5432 1.25 10.4536 1.33954 10.4536 1.45V2.05C10.4536 2.16046 10.5432 2.25 10.6536 2.25H12.2536ZM16.646 10.019C17.0564 9.40354 16.2587 8.70396 15.702 9.19109L12.1503 12.2989C11.9899 12.4392 11.898 12.6419 11.898 12.8549V13.6036C11.898 14.0117 12.2288 14.3425 12.6368 14.3425H13.3683C13.6154 14.3425 13.8461 14.219 13.9831 14.0134L16.646 10.019ZM13.2536 4.75C13.3641 4.75 13.4536 4.83954 13.4536 4.95V5.05C13.4536 5.16046 13.3641 5.25 13.2536 5.25H12.6536C12.5432 5.25 12.4536 5.16046 12.4536 5.05V4.95C12.4536 4.83954 12.5432 4.75 12.6536 4.75H13.2536ZM16.9061 5.36569C16.816 5.3018 16.6911 5.32304 16.6272 5.41314L16.5694 5.49471C16.5055 5.58482 16.5267 5.70965 16.6168 5.77355L17.1063 6.12062C17.1964 6.18452 17.3212 6.16327 17.3851 6.07317L17.443 5.9916C17.5068 5.9015 17.4856 5.77666 17.3955 5.71276L16.9061 5.36569ZM20.3357 8.58021C20.4042 8.66686 20.3895 8.79264 20.3029 8.86114L20.2244 8.92316C20.1378 8.99166 20.012 8.97695 19.9435 8.8903L19.5714 8.41962C19.5029 8.33297 19.5176 8.20719 19.6043 8.13869L19.6827 8.07667C19.7694 8.00817 19.8951 8.02288 19.9636 8.10953L20.3357 8.58021ZM20.7033 12.7998C20.7032 12.9102 20.7927 12.9998 20.9031 13L21.0031 13C21.1136 13.0002 21.2032 12.9107 21.2033 12.8002L21.2039 12.2002C21.204 12.0898 21.1146 12.0002 21.0041 12L20.9041 12C20.7937 11.9998 20.704 12.0893 20.7039 12.1998L20.7033 12.7998ZM19.9271 17.1105C19.9919 17.021 20.1169 17.001 20.2064 17.0658L20.2874 17.1244C20.3769 17.1892 20.3969 17.3142 20.3321 17.4037L19.9803 17.8897C19.9155 17.9792 19.7905 17.9992 19.701 17.9345L19.62 17.8758C19.5306 17.811 19.5105 17.686 19.5753 17.5965L19.9271 17.1105ZM16.5665 20.4482C16.473 20.507 16.4449 20.6305 16.5037 20.724L16.557 20.8086C16.6158 20.9021 16.7393 20.9302 16.8328 20.8714L17.3406 20.5519C17.4341 20.493 17.4622 20.3696 17.4034 20.2761L17.3501 20.1914C17.2913 20.0979 17.1678 20.0698 17.0744 20.1287L16.5665 20.4482ZM13.2536 21.25C13.3641 21.25 13.4536 21.3395 13.4536 21.45V21.55C13.4536 21.6605 13.3641 21.75 13.2536 21.75H12.6536C12.5432 21.75 12.4536 21.6605 12.4536 21.55V21.45C12.4536 21.3395 12.5432 21.25 12.6536 21.25H13.2536ZM4.47588 6.20081C4.36542 6.20081 4.27588 6.29035 4.27588 6.40081V7.00218C4.27588 7.11263 4.36542 7.20218 4.47588 7.20218H8.05493C8.16539 7.20218 8.25493 7.11263 8.25493 7.00218V6.40081C8.25493 6.29035 8.16539 6.20081 8.05493 6.20081H4.47588ZM4.27588 19.495C4.27588 19.3846 4.36542 19.295 4.47588 19.295H8.05493C8.16539 19.295 8.25493 19.3846 8.25493 19.495V20.0964C8.25493 20.2069 8.16539 20.2964 8.05493 20.2964H4.47588C4.36542 20.2964 4.27588 20.2069 4.27588 20.0964V19.495ZM2.44658 9.47437C2.33613 9.47437 2.24658 9.56391 2.24658 9.67437V10.2757C2.24658 10.3862 2.33613 10.4757 2.44658 10.4757H8.05483C8.16528 10.4757 8.25483 10.3862 8.25483 10.2757V9.67437C8.25483 9.56391 8.16528 9.47437 8.05483 9.47437H2.44658ZM2.24658 16.2215C2.24658 16.111 2.33613 16.0215 2.44658 16.0215H8.05483C8.16528 16.0215 8.25483 16.111 8.25483 16.2215V16.8229C8.25483 16.9333 8.16528 17.0229 8.05483 17.0229H2.44658C2.33613 17.0229 2.24658 16.9333 2.24658 16.8229V16.2215ZM1.47588 12.7479C1.36542 12.7479 1.27588 12.8375 1.27588 12.9479V13.5493C1.27588 13.6598 1.36542 13.7493 1.47588 13.7493H8.05483C8.16528 13.7493 8.25483 13.6598 8.25483 13.5493V12.9479C8.25483 12.8375 8.16528 12.7479 8.05483 12.7479H1.47588Z" fill="black"/>
</svg>
